<mxfile host="app.diagrams.net" agent="Mozilla/5.0 (Windows NT 10.0; Win64; x64) AppleWebKit/537.36 (KHTML, like Gecko) Chrome/131.0.0.0 Safari/537.36 Edg/131.0.0.0" version="26.0.2">
  <diagram name="Halaman-1" id="PakwvnBY2ziZspeunfR_">
    <mxGraphModel dx="1705" dy="1674" grid="1" gridSize="10" guides="1" tooltips="1" connect="1" arrows="1" fold="1" page="1" pageScale="1" pageWidth="827" pageHeight="1169" math="0" shadow="0">
      <root>
        <mxCell id="0" />
        <mxCell id="1" parent="0" />
        <UserObject label="" plantUmlData="{&#xa;  &quot;data&quot;: &quot;@startmindmap\n* CRM (Customer Relationship Management)\n** Pengertian CRM\n*** Definisi: Strategi untuk menjalin hubungan dengan pelanggan dan memberikan pelayanan memuaskan\n*** Tujuan:\n**** Memahami harapan dan kebutuhan pelanggan\n**** Menciptakan ikatan emosional dan komunikasi dua arah\n**** Menjaga loyalitas pelanggan\n** Variasi CRM\n*** Operasional CRM\n**** Dukungan untuk penjualan, pemasaran, dan pelayanan\n**** Menyimpan sejarah kontak pelanggan\n*** Penjualan CRM\n**** Sales Force Automation (SFA)\n**** Otomatisasi aktivitas penjualan\n*** Analitik CRM\n**** Analisis data pelanggan\n**** Kampanye pemasaran, cross-selling, up-selling\n*** Intelijen Penjualan\n**** Fitur pencarian peluang penjualan\n**** Menilai kinerja penjualan\n*** Manajemen Kampanye\n**** Kombinasi antara CRM operasional dan analitik\n**** Mengelola dan menganalisis kampanye\n*** Kolaboratif CRM\n**** Berbagi informasi antar departemen\n**** Meningkatkan pelayanan dengan berbagi data pelanggan\n** Dasar-Dasar CRM\n*** Metodologi dan strategi pengelolaan hubungan dengan pelanggan\n*** Mencakup interaksi pelanggan via berbagai saluran\n** Arsitektur CRM\n*** CRM – Marketing\n**** Pengiriman SMS broadcast dan pemasaran\n*** CRM – Sales\n**** Penindaklanjutan keluhan terkait penjualan\n*** CRM – Service\n**** Fasilitas appointment dan penindaklanjutan keluhan terkait service\n*** CRM – Quality Control\n**** Penindaklanjutan keluhan terkait kualitas produk\n*** CRM – Shipment\n**** Status pengiriman order\n*** CRM – Branch Management\n**** Sinkronisasi data antara pusat dan cabang\n** Aspek CRM\n*** Orang\n**** Internaliasi cara berpikir dan pelatihan karyawan\n*** Proses dan Prosedur\n**** Menyusun prosedur yang jelas untuk pelayanan pelanggan\n*** Sistem dan Teknologi\n**** Pemilihan teknologi CRM yang tepat dan implementasi sistem yang baik\n** Pengaruh Internet Terhadap CRM\n*** Komunikasi jarak jauh dan global\n*** Meningkatkan laba dengan hubungan pelanggan yang lebih baik\n*** Melakukan analisis data untuk peningkatan produk dan layanan\n** Potensi, Fungsi dan Manfaat CRM\n*** Potensi CRM\n**** Meningkatkan jumlah konsumen\n**** Mengetahui kebutuhan konsumen di masa depan\n*** Fungsi CRM\n**** Mengidentifikasi faktor penting bagi pelanggan\n**** Menangani keluhan dan mencatat penjualan\n*** Manfaat CRM\n**** Menambah konsumen baru\n**** Menganalisa pola transaksi pelanggan\n**** Mengurangi risiko operasional\n** Implementasi CRM\n*** Faktor Kunci: Orang, Proses, Teknologi\n*** Elemen Implementasi\n**** Otomatisasi pemasaran\n**** Pusat pelayanan (Call Center)\n**** Penggudangan data (Data Warehousing)\n** Teknologi Pendukung CRM\n*** Customer Database\n**** Sistem data terpadu untuk pelanggan\n*** Customer Intelligence\n**** Segmentasi pelanggan berdasarkan kebutuhan\n*** Customer Capacity and Competency Development\n**** Continuous improvement dalam pelayanan\n** Kesimpulan\n*** CRM sebagai strategi untuk memperoleh profit melalui manajemen hubungan pelanggan\n*** Keberhasilan CRM bergantung pada perubahan sistem, teknologi, dan sumber daya manusia\n@endmindmap\n&quot;,&#xa;  &quot;format&quot;: &quot;svg&quot;&#xa;}" id="w4jjykYkHgbRvD8YijEX-1">
          <mxCell style="shape=image;noLabel=1;verticalAlign=top;aspect=fixed;imageAspect=0;image=data:image/svg+xml,PD94bWwgdmVyc2lvbj0iMS4wIiBlbmNvZGluZz0idXMtYXNjaWkiIHN0YW5kYWxvbmU9Im5vIj8+PHN2ZyB4bWxucz0iaHR0cDovL3d3dy53My5vcmcvMjAwMC9zdmciIHhtbG5zOnhsaW5rPSJodHRwOi8vd3d3LnczLm9yZy8xOTk5L3hsaW5rIiBjb250ZW50U3R5bGVUeXBlPSJ0ZXh0L2NzcyIgaGVpZ2h0PSIyNTUxcHgiIHByZXNlcnZlQXNwZWN0UmF0aW89Im5vbmUiIHN0eWxlPSJ3aWR0aDoxMjYzcHg7aGVpZ2h0OjI1NTFweDtiYWNrZ3JvdW5kOiNGRkZGRkY7IiB2ZXJzaW9uPSIxLjEiIHZpZXdCb3g9IjAgMCAxMjYzIDI1NTEiIHdpZHRoPSIxMjYzcHgiIHpvb21BbmRQYW49Im1hZ25pZnkiPjxkZWZzLz48Zz48cmVjdCBmaWxsPSIjRjFGMUYxIiBoZWlnaHQ9IjM0Ljk4NDQiIHJ4PSIxMi41IiByeT0iMTIuNSIgc3R5bGU9InN0cm9rZTojMTgxODE4O3N0cm9rZS13aWR0aDoxLjU7IiB3aWR0aD0iMjkwIiB4PSIxMCIgeT0iMTI1Ny4xNDg0Ii8+PHRleHQgZmlsbD0iIzAwMDAwMCIgZm9udC1mYW1pbHk9InNhbnMtc2VyaWYiIGZvbnQtc2l6ZT0iMTQiIGxlbmd0aEFkanVzdD0ic3BhY2luZyIgdGV4dExlbmd0aD0iMjcwIiB4PSIyMCIgeT0iMTI4MC4zODI4Ij5DUk0gKEN1c3RvbWVyIFJlbGF0aW9uc2hpcCBNYW5hZ2VtZW50KTwvdGV4dD48cmVjdCBmaWxsPSIjRjFGMUYxIiBoZWlnaHQ9IjM0Ljk4NDQiIHJ4PSIxMi41IiByeT0iMTIuNSIgc3R5bGU9InN0cm9rZTojMTgxODE4O3N0cm9rZS13aWR0aDoxLjU7IiB3aWR0aD0iMTE4IiB4PSIzNTAiIHk9IjEwMi40NzY2Ii8+PHRleHQgZmlsbD0iIzAwMDAwMCIgZm9udC1mYW1pbHk9InNhbnMtc2VyaWYiIGZvbnQtc2l6ZT0iMTQiIGxlbmd0aEFkanVzdD0ic3BhY2luZyIgdGV4dExlbmd0aD0iOTgiIHg9IjM2MCIgeT0iMTI1LjcxMDkiPlBlbmdlcnRpYW4gQ1JNPC90ZXh0PjxyZWN0IGZpbGw9IiNGMUYxRjEiIGhlaWdodD0iMzQuOTg0NCIgcng9IjEyLjUiIHJ5PSIxMi41IiBzdHlsZT0ic3Ryb2tlOiMxODE4MTg7c3Ryb2tlLXdpZHRoOjEuNTsiIHdpZHRoPSI2ODMiIHg9IjUxOCIgeT0iMjAiLz48dGV4dCBmaWxsPSIjMDAwMDAwIiBmb250LWZhbWlseT0ic2Fucy1zZXJpZiIgZm9udC1zaXplPSIxNCIgbGVuZ3RoQWRqdXN0PSJzcGFjaW5nIiB0ZXh0TGVuZ3RoPSI2NjMiIHg9IjUyOCIgeT0iNDMuMjM0NCI+RGVmaW5pc2k6IFN0cmF0ZWdpIHVudHVrIG1lbmphbGluIGh1YnVuZ2FuIGRlbmdhbiBwZWxhbmdnYW4gZGFuIG1lbWJlcmlrYW4gcGVsYXlhbmFuIG1lbXVhc2thbjwvdGV4dD48cGF0aCBkPSJNNDY4LDExOS45Njg4IEw0NzgsMTE5Ljk2ODggQzQ5MywxMTkuOTY4OCA0OTMsMzcuNDkyMiA1MDgsMzcuNDkyMiBMNTE4LDM3LjQ5MjIgIiBmaWxsPSJub25lIiBzdHlsZT0ic3Ryb2tlOiMxODE4MTg7c3Ryb2tlLXdpZHRoOjEuMDsiLz48cmVjdCBmaWxsPSIjRjFGMUYxIiBoZWlnaHQ9IjM0Ljk4NDQiIHJ4PSIxMi41IiByeT0iMTIuNSIgc3R5bGU9InN0cm9rZTojMTgxODE4O3N0cm9rZS13aWR0aDoxLjU7IiB3aWR0aD0iNjkiIHg9IjUxOCIgeT0iMTI5Ljk2ODgiLz48dGV4dCBmaWxsPSIjMDAwMDAwIiBmb250LWZhbWlseT0ic2Fucy1zZXJpZiIgZm9udC1zaXplPSIxNCIgbGVuZ3RoQWRqdXN0PSJzcGFjaW5nIiB0ZXh0TGVuZ3RoPSI0OSIgeD0iNTI4IiB5PSIxNTMuMjAzMSI+VHVqdWFuOjwvdGV4dD48cmVjdCBmaWxsPSIjRjFGMUYxIiBoZWlnaHQ9IjM0Ljk4NDQiIHJ4PSIxMi41IiByeT0iMTIuNSIgc3R5bGU9InN0cm9rZTojMTgxODE4O3N0cm9rZS13aWR0aDoxLjU7IiB3aWR0aD0iMzAyIiB4PSI2MzciIHk9Ijc0Ljk4NDQiLz48dGV4dCBmaWxsPSIjMDAwMDAwIiBmb250LWZhbWlseT0ic2Fucy1zZXJpZiIgZm9udC1zaXplPSIxNCIgbGVuZ3RoQWRqdXN0PSJzcGFjaW5nIiB0ZXh0TGVuZ3RoPSIyODIiIHg9IjY0NyIgeT0iOTguMjE4OCI+TWVtYWhhbWkgaGFyYXBhbiBkYW4ga2VidXR1aGFuIHBlbGFuZ2dhbjwvdGV4dD48cGF0aCBkPSJNNTg3LDE0Ny40NjA5IEw1OTcsMTQ3LjQ2MDkgQzYxMiwxNDcuNDYwOSA2MTIsOTIuNDc2NiA2MjcsOTIuNDc2NiBMNjM3LDkyLjQ3NjYgIiBmaWxsPSJub25lIiBzdHlsZT0ic3Ryb2tlOiMxODE4MTg7c3Ryb2tlLXdpZHRoOjEuMDsiLz48cmVjdCBmaWxsPSIjRjFGMUYxIiBoZWlnaHQ9IjM0Ljk4NDQiIHJ4PSIxMi41IiByeT0iMTIuNSIgc3R5bGU9InN0cm9rZTojMTgxODE4O3N0cm9rZS13aWR0aDoxLjU7IiB3aWR0aD0iMzg2IiB4PSI2MzciIHk9IjEyOS45Njg4Ii8+PHRleHQgZmlsbD0iIzAwMDAwMCIgZm9udC1mYW1pbHk9InNhbnMtc2VyaWYiIGZvbnQtc2l6ZT0iMTQiIGxlbmd0aEFkanVzdD0ic3BhY2luZyIgdGV4dExlbmd0aD0iMzY2IiB4PSI2NDciIHk9IjE1My4yMDMxIj5NZW5jaXB0YWthbiBpa2F0YW4gZW1vc2lvbmFsIGRhbiBrb211bmlrYXNpIGR1YSBhcmFoPC90ZXh0PjxwYXRoIGQ9Ik01ODcsMTQ3LjQ2MDkgTDU5NywxNDcuNDYwOSBDNjEyLDE0Ny40NjA5IDYxMiwxNDcuNDYwOSA2MjcsMTQ3LjQ2MDkgTDYzNywxNDcuNDYwOSAiIGZpbGw9Im5vbmUiIHN0eWxlPSJzdHJva2U6IzE4MTgxODtzdHJva2Utd2lkdGg6MS4wOyIvPjxyZWN0IGZpbGw9IiNGMUYxRjEiIGhlaWdodD0iMzQuOTg0NCIgcng9IjEyLjUiIHJ5PSIxMi41IiBzdHlsZT0ic3Ryb2tlOiMxODE4MTg7c3Ryb2tlLXdpZHRoOjEuNTsiIHdpZHRoPSIyMDkiIHg9IjYzNyIgeT0iMTg0Ljk1MzEiLz48dGV4dCBmaWxsPSIjMDAwMDAwIiBmb250LWZhbWlseT0ic2Fucy1zZXJpZiIgZm9udC1zaXplPSIxNCIgbGVuZ3RoQWRqdXN0PSJzcGFjaW5nIiB0ZXh0TGVuZ3RoPSIxODkiIHg9IjY0NyIgeT0iMjA4LjE4NzUiPk1lbmphZ2EgbG95YWxpdGFzIHBlbGFuZ2dhbjwvdGV4dD48cGF0aCBkPSJNNTg3LDE0Ny40NjA5IEw1OTcsMTQ3LjQ2MDkgQzYxMiwxNDcuNDYwOSA2MTIsMjAyLjQ0NTMgNjI3LDIwMi40NDUzIEw2MzcsMjAyLjQ0NTMgIiBmaWxsPSJub25lIiBzdHlsZT0ic3Ryb2tlOiMxODE4MTg7c3Ryb2tlLXdpZHRoOjEuMDsiLz48cGF0aCBkPSJNNDY4LDExOS45Njg4IEw0NzgsMTE5Ljk2ODggQzQ5MywxMTkuOTY4OCA0OTMsMTQ3LjQ2MDkgNTA4LDE0Ny40NjA5IEw1MTgsMTQ3LjQ2MDkgIiBmaWxsPSJub25lIiBzdHlsZT0ic3Ryb2tlOiMxODE4MTg7c3Ryb2tlLXdpZHRoOjEuMDsiLz48cGF0aCBkPSJNMzAwLDEyNzQuNjQwNiBMMzEwLDEyNzQuNjQwNiBDMzI1LDEyNzQuNjQwNiAzMjUsMTE5Ljk2ODggMzQwLDExOS45Njg4IEwzNTAsMTE5Ljk2ODggIiBmaWxsPSJub25lIiBzdHlsZT0ic3Ryb2tlOiMxODE4MTg7c3Ryb2tlLXdpZHRoOjEuMDsiLz48cmVjdCBmaWxsPSIjRjFGMUYxIiBoZWlnaHQ9IjM0Ljk4NDQiIHJ4PSIxMi41IiByeT0iMTIuNSIgc3R5bGU9InN0cm9rZTojMTgxODE4O3N0cm9rZS13aWR0aDoxLjU7IiB3aWR0aD0iOTciIHg9IjM1MCIgeT0iNTQyLjM1MTYiLz48dGV4dCBmaWxsPSIjMDAwMDAwIiBmb250LWZhbWlseT0ic2Fucy1zZXJpZiIgZm9udC1zaXplPSIxNCIgbGVuZ3RoQWRqdXN0PSJzcGFjaW5nIiB0ZXh0TGVuZ3RoPSI3NyIgeD0iMzYwIiB5PSI1NjUuNTg1OSI+VmFyaWFzaSBDUk08L3RleHQ+PHJlY3QgZmlsbD0iI0YxRjFGMSIgaGVpZ2h0PSIzNC45ODQ0IiByeD0iMTIuNSIgcnk9IjEyLjUiIHN0eWxlPSJzdHJva2U6IzE4MTgxODtzdHJva2Utd2lkdGg6MS41OyIgd2lkdGg9IjEyNSIgeD0iNDk3IiB5PSIyNjcuNDI5NyIvPjx0ZXh0IGZpbGw9IiMwMDAwMDAiIGZvbnQtZmFtaWx5PSJzYW5zLXNlcmlmIiBmb250LXNpemU9IjE0IiBsZW5ndGhBZGp1c3Q9InNwYWNpbmciIHRleHRMZW5ndGg9IjEwNSIgeD0iNTA3IiB5PSIyOTAuNjY0MSI+T3BlcmFzaW9uYWwgQ1JNPC90ZXh0PjxyZWN0IGZpbGw9IiNGMUYxRjEiIGhlaWdodD0iMzQuOTg0NCIgcng9IjEyLjUiIHJ5PSIxMi41IiBzdHlsZT0ic3Ryb2tlOiMxODE4MTg7c3Ryb2tlLXdpZHRoOjEuNTsiIHdpZHRoPSIzNzEiIHg9IjY3MiIgeT0iMjM5LjkzNzUiLz48dGV4dCBmaWxsPSIjMDAwMDAwIiBmb250LWZhbWlseT0ic2Fucy1zZXJpZiIgZm9udC1zaXplPSIxNCIgbGVuZ3RoQWRqdXN0PSJzcGFjaW5nIiB0ZXh0TGVuZ3RoPSIzNTEiIHg9IjY4MiIgeT0iMjYzLjE3MTkiPkR1a3VuZ2FuIHVudHVrIHBlbmp1YWxhbiwgcGVtYXNhcmFuLCBkYW4gcGVsYXlhbmFuPC90ZXh0PjxwYXRoIGQ9Ik02MjIsMjg0LjkyMTkgTDYzMiwyODQuOTIxOSBDNjQ3LDI4NC45MjE5IDY0NywyNTcuNDI5NyA2NjIsMjU3LjQyOTcgTDY3MiwyNTcuNDI5NyAiIGZpbGw9Im5vbmUiIHN0eWxlPSJzdHJva2U6IzE4MTgxODtzdHJva2Utd2lkdGg6MS4wOyIvPjxyZWN0IGZpbGw9IiNGMUYxRjEiIGhlaWdodD0iMzQuOTg0NCIgcng9IjEyLjUiIHJ5PSIxMi41IiBzdHlsZT0ic3Ryb2tlOiMxODE4MTg7c3Ryb2tlLXdpZHRoOjEuNTsiIHdpZHRoPSIyNTkiIHg9IjY3MiIgeT0iMjk0LjkyMTkiLz48dGV4dCBmaWxsPSIjMDAwMDAwIiBmb250LWZhbWlseT0ic2Fucy1zZXJpZiIgZm9udC1zaXplPSIxNCIgbGVuZ3RoQWRqdXN0PSJzcGFjaW5nIiB0ZXh0TGVuZ3RoPSIyMzkiIHg9IjY4MiIgeT0iMzE4LjE1NjMiPk1lbnlpbXBhbiBzZWphcmFoIGtvbnRhayBwZWxhbmdnYW48L3RleHQ+PHBhdGggZD0iTTYyMiwyODQuOTIxOSBMNjMyLDI4NC45MjE5IEM2NDcsMjg0LjkyMTkgNjQ3LDMxMi40MTQxIDY2MiwzMTIuNDE0MSBMNjcyLDMxMi40MTQxICIgZmlsbD0ibm9uZSIgc3R5bGU9InN0cm9rZTojMTgxODE4O3N0cm9rZS13aWR0aDoxLjA7Ii8+PHBhdGggZD0iTTQ0Nyw1NTkuODQzOCBMNDU3LDU1OS44NDM4IEM0NzIsNTU5Ljg0MzggNDcyLDI4NC45MjE5IDQ4NywyODQuOTIxOSBMNDk3LDI4NC45MjE5ICIgZmlsbD0ibm9uZSIgc3R5bGU9InN0cm9rZTojMTgxODE4O3N0cm9rZS13aWR0aDoxLjA7Ii8+PHJlY3QgZmlsbD0iI0YxRjFGMSIgaGVpZ2h0PSIzNC45ODQ0IiByeD0iMTIuNSIgcnk9IjEyLjUiIHN0eWxlPSJzdHJva2U6IzE4MTgxODtzdHJva2Utd2lkdGg6MS41OyIgd2lkdGg9IjExMSIgeD0iNDk3IiB5PSIzNzcuMzk4NCIvPjx0ZXh0IGZpbGw9IiMwMDAwMDAiIGZvbnQtZmFtaWx5PSJzYW5zLXNlcmlmIiBmb250LXNpemU9IjE0IiBsZW5ndGhBZGp1c3Q9InNwYWNpbmciIHRleHRMZW5ndGg9IjkxIiB4PSI1MDciIHk9IjQwMC42MzI4Ij5QZW5qdWFsYW4gQ1JNPC90ZXh0PjxyZWN0IGZpbGw9IiNGMUYxRjEiIGhlaWdodD0iMzQuOTg0NCIgcng9IjEyLjUiIHJ5PSIxMi41IiBzdHlsZT0ic3Ryb2tlOiMxODE4MTg7c3Ryb2tlLXdpZHRoOjEuNTsiIHdpZHRoPSIyMTkiIHg9IjY1OCIgeT0iMzQ5LjkwNjMiLz48dGV4dCBmaWxsPSIjMDAwMDAwIiBmb250LWZhbWlseT0ic2Fucy1zZXJpZiIgZm9udC1zaXplPSIxNCIgbGVuZ3RoQWRqdXN0PSJzcGFjaW5nIiB0ZXh0TGVuZ3RoPSIxOTkiIHg9IjY2OCIgeT0iMzczLjE0MDYiPlNhbGVzIEZvcmNlIEF1dG9tYXRpb24gKFNGQSk8L3RleHQ+PHBhdGggZD0iTTYwOCwzOTQuODkwNiBMNjE4LDM5NC44OTA2IEM2MzMsMzk0Ljg5MDYgNjMzLDM2Ny4zOTg0IDY0OCwzNjcuMzk4NCBMNjU4LDM2Ny4zOTg0ICIgZmlsbD0ibm9uZSIgc3R5bGU9InN0cm9rZTojMTgxODE4O3N0cm9rZS13aWR0aDoxLjA7Ii8+PHJlY3QgZmlsbD0iI0YxRjFGMSIgaGVpZ2h0PSIzNC45ODQ0IiByeD0iMTIuNSIgcnk9IjEyLjUiIHN0eWxlPSJzdHJva2U6IzE4MTgxODtzdHJva2Utd2lkdGg6MS41OyIgd2lkdGg9IjIzOCIgeD0iNjU4IiB5PSI0MDQuODkwNiIvPjx0ZXh0IGZpbGw9IiMwMDAwMDAiIGZvbnQtZmFtaWx5PSJzYW5zLXNlcmlmIiBmb250LXNpemU9IjE0IiBsZW5ndGhBZGp1c3Q9InNwYWNpbmciIHRleHRMZW5ndGg9IjIxOCIgeD0iNjY4IiB5PSI0MjguMTI1Ij5PdG9tYXRpc2FzaSBha3Rpdml0YXMgcGVuanVhbGFuPC90ZXh0PjxwYXRoIGQ9Ik02MDgsMzk0Ljg5MDYgTDYxOCwzOTQuODkwNiBDNjMzLDM5NC44OTA2IDYzMyw0MjIuMzgyOCA2NDgsNDIyLjM4MjggTDY1OCw0MjIuMzgyOCAiIGZpbGw9Im5vbmUiIHN0eWxlPSJzdHJva2U6IzE4MTgxODtzdHJva2Utd2lkdGg6MS4wOyIvPjxwYXRoIGQ9Ik00NDcsNTU5Ljg0MzggTDQ1Nyw1NTkuODQzOCBDNDcyLDU1OS44NDM4IDQ3MiwzOTQuODkwNiA0ODcsMzk0Ljg5MDYgTDQ5NywzOTQuODkwNiAiIGZpbGw9Im5vbmUiIHN0eWxlPSJzdHJva2U6IzE4MTgxODtzdHJva2Utd2lkdGg6MS4wOyIvPjxyZWN0IGZpbGw9IiNGMUYxRjEiIGhlaWdodD0iMzQuOTg0NCIgcng9IjEyLjUiIHJ5PSIxMi41IiBzdHlsZT0ic3Ryb2tlOiMxODE4MTg7c3Ryb2tlLXdpZHRoOjEuNTsiIHdpZHRoPSIxMDQiIHg9IjQ5NyIgeT0iNDg3LjM2NzIiLz48dGV4dCBmaWxsPSIjMDAwMDAwIiBmb250LWZhbWlseT0ic2Fucy1zZXJpZiIgZm9udC1zaXplPSIxNCIgbGVuZ3RoQWRqdXN0PSJzcGFjaW5nIiB0ZXh0TGVuZ3RoPSI4NCIgeD0iNTA3IiB5PSI1MTAuNjAxNiI+QW5hbGl0aWsgQ1JNPC90ZXh0PjxyZWN0IGZpbGw9IiNGMUYxRjEiIGhlaWdodD0iMzQuOTg0NCIgcng9IjEyLjUiIHJ5PSIxMi41IiBzdHlsZT0ic3Ryb2tlOiMxODE4MTg7c3Ryb2tlLXdpZHRoOjEuNTsiIHdpZHRoPSIxODEiIHg9IjY1MSIgeT0iNDU5Ljg3NSIvPjx0ZXh0IGZpbGw9IiMwMDAwMDAiIGZvbnQtZmFtaWx5PSJzYW5zLXNlcmlmIiBmb250LXNpemU9IjE0IiBsZW5ndGhBZGp1c3Q9InNwYWNpbmciIHRleHRMZW5ndGg9IjE2MSIgeD0iNjYxIiB5PSI0ODMuMTA5NCI+QW5hbGlzaXMgZGF0YSBwZWxhbmdnYW48L3RleHQ+PHBhdGggZD0iTTYwMSw1MDQuODU5NCBMNjExLDUwNC44NTk0IEM2MjYsNTA0Ljg1OTQgNjI2LDQ3Ny4zNjcyIDY0MSw0NzcuMzY3MiBMNjUxLDQ3Ny4zNjcyICIgZmlsbD0ibm9uZSIgc3R5bGU9InN0cm9rZTojMTgxODE4O3N0cm9rZS13aWR0aDoxLjA7Ii8+PHJlY3QgZmlsbD0iI0YxRjFGMSIgaGVpZ2h0PSIzNC45ODQ0IiByeD0iMTIuNSIgcnk9IjEyLjUiIHN0eWxlPSJzdHJva2U6IzE4MTgxODtzdHJva2Utd2lkdGg6MS41OyIgd2lkdGg9IjMzNyIgeD0iNjUxIiB5PSI1MTQuODU5NCIvPjx0ZXh0IGZpbGw9IiMwMDAwMDAiIGZvbnQtZmFtaWx5PSJzYW5zLXNlcmlmIiBmb250LXNpemU9IjE0IiBsZW5ndGhBZGp1c3Q9InNwYWNpbmciIHRleHRMZW5ndGg9IjMxNyIgeD0iNjYxIiB5PSI1MzguMDkzOCI+S2FtcGFueWUgcGVtYXNhcmFuLCBjcm9zcy1zZWxsaW5nLCB1cC1zZWxsaW5nPC90ZXh0PjxwYXRoIGQ9Ik02MDEsNTA0Ljg1OTQgTDYxMSw1MDQuODU5NCBDNjI2LDUwNC44NTk0IDYyNiw1MzIuMzUxNiA2NDEsNTMyLjM1MTYgTDY1MSw1MzIuMzUxNiAiIGZpbGw9Im5vbmUiIHN0eWxlPSJzdHJva2U6IzE4MTgxODtzdHJva2Utd2lkdGg6MS4wOyIvPjxwYXRoIGQ9Ik00NDcsNTU5Ljg0MzggTDQ1Nyw1NTkuODQzOCBDNDcyLDU1OS44NDM4IDQ3Miw1MDQuODU5NCA0ODcsNTA0Ljg1OTQgTDQ5Nyw1MDQuODU5NCAiIGZpbGw9Im5vbmUiIHN0eWxlPSJzdHJva2U6IzE4MTgxODtzdHJva2Utd2lkdGg6MS4wOyIvPjxyZWN0IGZpbGw9IiNGMUYxRjEiIGhlaWdodD0iMzQuOTg0NCIgcng9IjEyLjUiIHJ5PSIxMi41IiBzdHlsZT0ic3Ryb2tlOiMxODE4MTg7c3Ryb2tlLXdpZHRoOjEuNTsiIHdpZHRoPSIxNTMiIHg9IjQ5NyIgeT0iNTk3LjMzNTkiLz48dGV4dCBmaWxsPSIjMDAwMDAwIiBmb250LWZhbWlseT0ic2Fucy1zZXJpZiIgZm9udC1zaXplPSIxNCIgbGVuZ3RoQWRqdXN0PSJzcGFjaW5nIiB0ZXh0TGVuZ3RoPSIxMzMiIHg9IjUwNyIgeT0iNjIwLjU3MDMiPkludGVsaWplbiBQZW5qdWFsYW48L3RleHQ+PHJlY3QgZmlsbD0iI0YxRjFGMSIgaGVpZ2h0PSIzNC45ODQ0IiByeD0iMTIuNSIgcnk9IjEyLjUiIHN0eWxlPSJzdHJva2U6IzE4MTgxODtzdHJva2Utd2lkdGg6MS41OyIgd2lkdGg9IjI1MSIgeD0iNzAwIiB5PSI1NjkuODQzOCIvPjx0ZXh0IGZpbGw9IiMwMDAwMDAiIGZvbnQtZmFtaWx5PSJzYW5zLXNlcmlmIiBmb250LXNpemU9IjE0IiBsZW5ndGhBZGp1c3Q9InNwYWNpbmciIHRleHRMZW5ndGg9IjIzMSIgeD0iNzEwIiB5PSI1OTMuMDc4MSI+Rml0dXIgcGVuY2FyaWFuIHBlbHVhbmcgcGVuanVhbGFuPC90ZXh0PjxwYXRoIGQ9Ik02NTAsNjE0LjgyODEgTDY2MCw2MTQuODI4MSBDNjc1LDYxNC44MjgxIDY3NSw1ODcuMzM1OSA2OTAsNTg3LjMzNTkgTDcwMCw1ODcuMzM1OSAiIGZpbGw9Im5vbmUiIHN0eWxlPSJzdHJva2U6IzE4MTgxODtzdHJva2Utd2lkdGg6MS4wOyIvPjxyZWN0IGZpbGw9IiNGMUYxRjEiIGhlaWdodD0iMzQuOTg0NCIgcng9IjEyLjUiIHJ5PSIxMi41IiBzdHlsZT0ic3Ryb2tlOiMxODE4MTg7c3Ryb2tlLXdpZHRoOjEuNTsiIHdpZHRoPSIxOTUiIHg9IjcwMCIgeT0iNjI0LjgyODEiLz48dGV4dCBmaWxsPSIjMDAwMDAwIiBmb250LWZhbWlseT0ic2Fucy1zZXJpZiIgZm9udC1zaXplPSIxNCIgbGVuZ3RoQWRqdXN0PSJzcGFjaW5nIiB0ZXh0TGVuZ3RoPSIxNzUiIHg9IjcxMCIgeT0iNjQ4LjA2MjUiPk1lbmlsYWkga2luZXJqYSBwZW5qdWFsYW48L3RleHQ+PHBhdGggZD0iTTY1MCw2MTQuODI4MSBMNjYwLDYxNC44MjgxIEM2NzUsNjE0LjgyODEgNjc1LDY0Mi4zMjAzIDY5MCw2NDIuMzIwMyBMNzAwLDY0Mi4zMjAzICIgZmlsbD0ibm9uZSIgc3R5bGU9InN0cm9rZTojMTgxODE4O3N0cm9rZS13aWR0aDoxLjA7Ii8+PHBhdGggZD0iTTQ0Nyw1NTkuODQzOCBMNDU3LDU1OS44NDM4IEM0NzIsNTU5Ljg0MzggNDcyLDYxNC44MjgxIDQ4Nyw2MTQuODI4MSBMNDk3LDYxNC44MjgxICIgZmlsbD0ibm9uZSIgc3R5bGU9InN0cm9rZTojMTgxODE4O3N0cm9rZS13aWR0aDoxLjA7Ii8+PHJlY3QgZmlsbD0iI0YxRjFGMSIgaGVpZ2h0PSIzNC45ODQ0IiByeD0iMTIuNSIgcnk9IjEyLjUiIHN0eWxlPSJzdHJva2U6IzE4MTgxODtzdHJva2Utd2lkdGg6MS41OyIgd2lkdGg9IjE0OCIgeD0iNDk3IiB5PSI3MDcuMzA0NyIvPjx0ZXh0IGZpbGw9IiMwMDAwMDAiIGZvbnQtZmFtaWx5PSJzYW5zLXNlcmlmIiBmb250LXNpemU9IjE0IiBsZW5ndGhBZGp1c3Q9InNwYWNpbmciIHRleHRMZW5ndGg9IjEyOCIgeD0iNTA3IiB5PSI3MzAuNTM5MSI+TWFuYWplbWVuIEthbXBhbnllPC90ZXh0PjxyZWN0IGZpbGw9IiNGMUYxRjEiIGhlaWdodD0iMzQuOTg0NCIgcng9IjEyLjUiIHJ5PSIxMi41IiBzdHlsZT0ic3Ryb2tlOiMxODE4MTg7c3Ryb2tlLXdpZHRoOjEuNTsiIHdpZHRoPSIzMzYiIHg9IjY5NSIgeT0iNjc5LjgxMjUiLz48dGV4dCBmaWxsPSIjMDAwMDAwIiBmb250LWZhbWlseT0ic2Fucy1zZXJpZiIgZm9udC1zaXplPSIxNCIgbGVuZ3RoQWRqdXN0PSJzcGFjaW5nIiB0ZXh0TGVuZ3RoPSIzMTYiIHg9IjcwNSIgeT0iNzAzLjA0NjkiPktvbWJpbmFzaSBhbnRhcmEgQ1JNIG9wZXJhc2lvbmFsIGRhbiBhbmFsaXRpazwvdGV4dD48cGF0aCBkPSJNNjQ1LDcyNC43OTY5IEw2NTUsNzI0Ljc5NjkgQzY3MCw3MjQuNzk2OSA2NzAsNjk3LjMwNDcgNjg1LDY5Ny4zMDQ3IEw2OTUsNjk3LjMwNDcgIiBmaWxsPSJub25lIiBzdHlsZT0ic3Ryb2tlOiMxODE4MTg7c3Ryb2tlLXdpZHRoOjEuMDsiLz48cmVjdCBmaWxsPSIjRjFGMUYxIiBoZWlnaHQ9IjM0Ljk4NDQiIHJ4PSIxMi41IiByeT0iMTIuNSIgc3R5bGU9InN0cm9rZTojMTgxODE4O3N0cm9rZS13aWR0aDoxLjU7IiB3aWR0aD0iMjY3IiB4PSI2OTUiIHk9IjczNC43OTY5Ii8+PHRleHQgZmlsbD0iIzAwMDAwMCIgZm9udC1mYW1pbHk9InNhbnMtc2VyaWYiIGZvbnQtc2l6ZT0iMTQiIGxlbmd0aEFkanVzdD0ic3BhY2luZyIgdGV4dExlbmd0aD0iMjQ3IiB4PSI3MDUiIHk9Ijc1OC4wMzEzIj5NZW5nZWxvbGEgZGFuIG1lbmdhbmFsaXNpcyBrYW1wYW55ZTwvdGV4dD48cGF0aCBkPSJNNjQ1LDcyNC43OTY5IEw2NTUsNzI0Ljc5NjkgQzY3MCw3MjQuNzk2OSA2NzAsNzUyLjI4OTEgNjg1LDc1Mi4yODkxIEw2OTUsNzUyLjI4OTEgIiBmaWxsPSJub25lIiBzdHlsZT0ic3Ryb2tlOiMxODE4MTg7c3Ryb2tlLXdpZHRoOjEuMDsiLz48cGF0aCBkPSJNNDQ3LDU1OS44NDM4IEw0NTcsNTU5Ljg0MzggQzQ3Miw1NTkuODQzOCA0NzIsNzI0Ljc5NjkgNDg3LDcyNC43OTY5IEw0OTcsNzI0Ljc5NjkgIiBmaWxsPSJub25lIiBzdHlsZT0ic3Ryb2tlOiMxODE4MTg7c3Ryb2tlLXdpZHRoOjEuMDsiLz48cmVjdCBmaWxsPSIjRjFGMUYxIiBoZWlnaHQ9IjM0Ljk4NDQiIHJ4PSIxMi41IiByeT0iMTIuNSIgc3R5bGU9InN0cm9rZTojMTgxODE4O3N0cm9rZS13aWR0aDoxLjU7IiB3aWR0aD0iMTI1IiB4PSI0OTciIHk9IjgxNy4yNzM0Ii8+PHRleHQgZmlsbD0iIzAwMDAwMCIgZm9udC1mYW1pbHk9InNhbnMtc2VyaWYiIGZvbnQtc2l6ZT0iMTQiIGxlbmd0aEFkanVzdD0ic3BhY2luZyIgdGV4dExlbmd0aD0iMTA1IiB4PSI1MDciIHk9Ijg0MC41MDc4Ij5Lb2xhYm9yYXRpZiBDUk08L3RleHQ+PHJlY3QgZmlsbD0iI0YxRjFGMSIgaGVpZ2h0PSIzNC45ODQ0IiByeD0iMTIuNSIgcnk9IjEyLjUiIHN0eWxlPSJzdHJva2U6IzE4MTgxODtzdHJva2Utd2lkdGg6MS41OyIgd2lkdGg9IjI2MCIgeD0iNjcyIiB5PSI3ODkuNzgxMyIvPjx0ZXh0IGZpbGw9IiMwMDAwMDAiIGZvbnQtZmFtaWx5PSJzYW5zLXNlcmlmIiBmb250LXNpemU9IjE0IiBsZW5ndGhBZGp1c3Q9InNwYWNpbmciIHRleHRMZW5ndGg9IjI0MCIgeD0iNjgyIiB5PSI4MTMuMDE1NiI+QmVyYmFnaSBpbmZvcm1hc2kgYW50YXIgZGVwYXJ0ZW1lbjwvdGV4dD48cGF0aCBkPSJNNjIyLDgzNC43NjU2IEw2MzIsODM0Ljc2NTYgQzY0Nyw4MzQuNzY1NiA2NDcsODA3LjI3MzQgNjYyLDgwNy4yNzM0IEw2NzIsODA3LjI3MzQgIiBmaWxsPSJub25lIiBzdHlsZT0ic3Ryb2tlOiMxODE4MTg7c3Ryb2tlLXdpZHRoOjEuMDsiLz48cmVjdCBmaWxsPSIjRjFGMUYxIiBoZWlnaHQ9IjM0Ljk4NDQiIHJ4PSIxMi41IiByeT0iMTIuNSIgc3R5bGU9InN0cm9rZTojMTgxODE4O3N0cm9rZS13aWR0aDoxLjU7IiB3aWR0aD0iMzg0IiB4PSI2NzIiIHk9Ijg0NC43NjU2Ii8+PHRleHQgZmlsbD0iIzAwMDAwMCIgZm9udC1mYW1pbHk9InNhbnMtc2VyaWYiIGZvbnQtc2l6ZT0iMTQiIGxlbmd0aEFkanVzdD0ic3BhY2luZyIgdGV4dExlbmd0aD0iMzY0IiB4PSI2ODIiIHk9Ijg2OCI+TWVuaW5na2F0a2FuIHBlbGF5YW5hbiBkZW5nYW4gYmVyYmFnaSBkYXRhIHBlbGFuZ2dhbjwvdGV4dD48cGF0aCBkPSJNNjIyLDgzNC43NjU2IEw2MzIsODM0Ljc2NTYgQzY0Nyw4MzQuNzY1NiA2NDcsODYyLjI1NzggNjYyLDg2Mi4yNTc4IEw2NzIsODYyLjI1NzggIiBmaWxsPSJub25lIiBzdHlsZT0ic3Ryb2tlOiMxODE4MTg7c3Ryb2tlLXdpZHRoOjEuMDsiLz48cGF0aCBkPSJNNDQ3LDU1OS44NDM4IEw0NTcsNTU5Ljg0MzggQzQ3Miw1NTkuODQzOCA0NzIsODM0Ljc2NTYgNDg3LDgzNC43NjU2IEw0OTcsODM0Ljc2NTYgIiBmaWxsPSJub25lIiBzdHlsZT0ic3Ryb2tlOiMxODE4MTg7c3Ryb2tlLXdpZHRoOjEuMDsiLz48cGF0aCBkPSJNMzAwLDEyNzQuNjQwNiBMMzEwLDEyNzQuNjQwNiBDMzI1LDEyNzQuNjQwNiAzMjUsNTU5Ljg0MzggMzQwLDU1OS44NDM4IEwzNTAsNTU5Ljg0MzggIiBmaWxsPSJub25lIiBzdHlsZT0ic3Ryb2tlOiMxODE4MTg7c3Ryb2tlLXdpZHRoOjEuMDsiLz48cmVjdCBmaWxsPSIjRjFGMUYxIiBoZWlnaHQ9IjM0Ljk4NDQiIHJ4PSIxMi41IiByeT0iMTIuNSIgc3R5bGU9InN0cm9rZTojMTgxODE4O3N0cm9rZS13aWR0aDoxLjU7IiB3aWR0aD0iMTI1IiB4PSIzNTAiIHk9IjkyNy4yNDIyIi8+PHRleHQgZmlsbD0iIzAwMDAwMCIgZm9udC1mYW1pbHk9InNhbnMtc2VyaWYiIGZvbnQtc2l6ZT0iMTQiIGxlbmd0aEFkanVzdD0ic3BhY2luZyIgdGV4dExlbmd0aD0iMTA1IiB4PSIzNjAiIHk9Ijk1MC40NzY2Ij5EYXNhci1EYXNhciBDUk08L3RleHQ+PHJlY3QgZmlsbD0iI0YxRjFGMSIgaGVpZ2h0PSIzNC45ODQ0IiByeD0iMTIuNSIgcnk9IjEyLjUiIHN0eWxlPSJzdHJva2U6IzE4MTgxODtzdHJva2Utd2lkdGg6MS41OyIgd2lkdGg9IjQ0NyIgeD0iNTI1IiB5PSI4OTkuNzUiLz48dGV4dCBmaWxsPSIjMDAwMDAwIiBmb250LWZhbWlseT0ic2Fucy1zZXJpZiIgZm9udC1zaXplPSIxNCIgbGVuZ3RoQWRqdXN0PSJzcGFjaW5nIiB0ZXh0TGVuZ3RoPSI0MjciIHg9IjUzNSIgeT0iOTIyLjk4NDQiPk1ldG9kb2xvZ2kgZGFuIHN0cmF0ZWdpIHBlbmdlbG9sYWFuIGh1YnVuZ2FuIGRlbmdhbiBwZWxhbmdnYW48L3RleHQ+PHBhdGggZD0iTTQ3NSw5NDQuNzM0NCBMNDg1LDk0NC43MzQ0IEM1MDAsOTQ0LjczNDQgNTAwLDkxNy4yNDIyIDUxNSw5MTcuMjQyMiBMNTI1LDkxNy4yNDIyICIgZmlsbD0ibm9uZSIgc3R5bGU9InN0cm9rZTojMTgxODE4O3N0cm9rZS13aWR0aDoxLjA7Ii8+PHJlY3QgZmlsbD0iI0YxRjFGMSIgaGVpZ2h0PSIzNC45ODQ0IiByeD0iMTIuNSIgcnk9IjEyLjUiIHN0eWxlPSJzdHJva2U6IzE4MTgxODtzdHJva2Utd2lkdGg6MS41OyIgd2lkdGg9IjM2MyIgeD0iNTI1IiB5PSI5NTQuNzM0NCIvPjx0ZXh0IGZpbGw9IiMwMDAwMDAiIGZvbnQtZmFtaWx5PSJzYW5zLXNlcmlmIiBmb250LXNpemU9IjE0IiBsZW5ndGhBZGp1c3Q9InNwYWNpbmciIHRleHRMZW5ndGg9IjM0MyIgeD0iNTM1IiB5PSI5NzcuOTY4OCI+TWVuY2FrdXAgaW50ZXJha3NpIHBlbGFuZ2dhbiB2aWEgYmVyYmFnYWkgc2FsdXJhbjwvdGV4dD48cGF0aCBkPSJNNDc1LDk0NC43MzQ0IEw0ODUsOTQ0LjczNDQgQzUwMCw5NDQuNzM0NCA1MDAsOTcyLjIyNjYgNTE1LDk3Mi4yMjY2IEw1MjUsOTcyLjIyNjYgIiBmaWxsPSJub25lIiBzdHlsZT0ic3Ryb2tlOiMxODE4MTg7c3Ryb2tlLXdpZHRoOjEuMDsiLz48cGF0aCBkPSJNMzAwLDEyNzQuNjQwNiBMMzEwLDEyNzQuNjQwNiBDMzI1LDEyNzQuNjQwNiAzMjUsOTQ0LjczNDQgMzQwLDk0NC43MzQ0IEwzNTAsOTQ0LjczNDQgIiBmaWxsPSJub25lIiBzdHlsZT0ic3Ryb2tlOiMxODE4MTg7c3Ryb2tlLXdpZHRoOjEuMDsiLz48cmVjdCBmaWxsPSIjRjFGMUYxIiBoZWlnaHQ9IjM0Ljk4NDQiIHJ4PSIxMi41IiByeT0iMTIuNSIgc3R5bGU9InN0cm9rZTojMTgxODE4O3N0cm9rZS13aWR0aDoxLjU7IiB3aWR0aD0iMTE4IiB4PSIzNTAiIHk9IjExNDcuMTc5NyIvPjx0ZXh0IGZpbGw9IiMwMDAwMDAiIGZvbnQtZmFtaWx5PSJzYW5zLXNlcmlmIiBmb250LXNpemU9IjE0IiBsZW5ndGhBZGp1c3Q9InNwYWNpbmciIHRleHRMZW5ndGg9Ijk4IiB4PSIzNjAiIHk9IjExNzAuNDE0MSI+QXJzaXRla3R1ciBDUk08L3RleHQ+PHJlY3QgZmlsbD0iI0YxRjFGMSIgaGVpZ2h0PSIzNC45ODQ0IiByeD0iMTIuNSIgcnk9IjEyLjUiIHN0eWxlPSJzdHJva2U6IzE4MTgxODtzdHJva2Utd2lkdGg6MS41OyIgd2lkdGg9IjEyNSIgeD0iNTE4IiB5PSIxMDA5LjcxODgiLz48dGV4dCBmaWxsPSIjMDAwMDAwIiBmb250LWZhbWlseT0ic2Fucy1zZXJpZiIgZm9udC1zaXplPSIxNCIgbGVuZ3RoQWRqdXN0PSJzcGFjaW5nIiB0ZXh0TGVuZ3RoPSIxMDUiIHg9IjUyOCIgeT0iMTAzMi45NTMxIj5DUk0gLSBNYXJrZXRpbmc8L3RleHQ+PHJlY3QgZmlsbD0iI0YxRjFGMSIgaGVpZ2h0PSIzNC45ODQ0IiByeD0iMTIuNSIgcnk9IjEyLjUiIHN0eWxlPSJzdHJva2U6IzE4MTgxODtzdHJva2Utd2lkdGg6MS41OyIgd2lkdGg9IjI4OCIgeD0iNjkzIiB5PSIxMDA5LjcxODgiLz48dGV4dCBmaWxsPSIjMDAwMDAwIiBmb250LWZhbWlseT0ic2Fucy1zZXJpZiIgZm9udC1zaXplPSIxNCIgbGVuZ3RoQWRqdXN0PSJzcGFjaW5nIiB0ZXh0TGVuZ3RoPSIyNjgiIHg9IjcwMyIgeT0iMTAzMi45NTMxIj5QZW5naXJpbWFuIFNNUyBicm9hZGNhc3QgZGFuIHBlbWFzYXJhbjwvdGV4dD48cGF0aCBkPSJNNjQzLDEwMjcuMjEwOSBMNjUzLDEwMjcuMjEwOSBDNjY4LDEwMjcuMjEwOSA2NjgsMTAyNy4yMTA5IDY4MywxMDI3LjIxMDkgTDY5MywxMDI3LjIxMDkgIiBmaWxsPSJub25lIiBzdHlsZT0ic3Ryb2tlOiMxODE4MTg7c3Ryb2tlLXdpZHRoOjEuMDsiLz48cGF0aCBkPSJNNDY4LDExNjQuNjcxOSBMNDc4LDExNjQuNjcxOSBDNDkzLDExNjQuNjcxOSA0OTMsMTAyNy4yMTA5IDUwOCwxMDI3LjIxMDkgTDUxOCwxMDI3LjIxMDkgIiBmaWxsPSJub25lIiBzdHlsZT0ic3Ryb2tlOiMxODE4MTg7c3Ryb2tlLXdpZHRoOjEuMDsiLz48cmVjdCBmaWxsPSIjRjFGMUYxIiBoZWlnaHQ9IjM0Ljk4NDQiIHJ4PSIxMi41IiByeT0iMTIuNSIgc3R5bGU9InN0cm9rZTojMTgxODE4O3N0cm9rZS13aWR0aDoxLjU7IiB3aWR0aD0iOTciIHg9IjUxOCIgeT0iMTA2NC43MDMxIi8+PHRleHQgZmlsbD0iIzAwMDAwMCIgZm9udC1mYW1pbHk9InNhbnMtc2VyaWYiIGZvbnQtc2l6ZT0iMTQiIGxlbmd0aEFkanVzdD0ic3BhY2luZyIgdGV4dExlbmd0aD0iNzciIHg9IjUyOCIgeT0iMTA4Ny45Mzc1Ij5DUk0gLSBTYWxlczwvdGV4dD48cmVjdCBmaWxsPSIjRjFGMUYxIiBoZWlnaHQ9IjM0Ljk4NDQiIHJ4PSIxMi41IiByeT0iMTIuNSIgc3R5bGU9InN0cm9rZTojMTgxODE4O3N0cm9rZS13aWR0aDoxLjU7IiB3aWR0aD0iMzE0IiB4PSI2NjUiIHk9IjEwNjQuNzAzMSIvPjx0ZXh0IGZpbGw9IiMwMDAwMDAiIGZvbnQtZmFtaWx5PSJzYW5zLXNlcmlmIiBmb250LXNpemU9IjE0IiBsZW5ndGhBZGp1c3Q9InNwYWNpbmciIHRleHRMZW5ndGg9IjI5NCIgeD0iNjc1IiB5PSIxMDg3LjkzNzUiPlBlbmluZGFrbGFuanV0YW4ga2VsdWhhbiB0ZXJrYWl0IHBlbmp1YWxhbjwvdGV4dD48cGF0aCBkPSJNNjE1LDEwODIuMTk1MyBMNjI1LDEwODIuMTk1MyBDNjQwLDEwODIuMTk1MyA2NDAsMTA4Mi4xOTUzIDY1NSwxMDgyLjE5NTMgTDY2NSwxMDgyLjE5NTMgIiBmaWxsPSJub25lIiBzdHlsZT0ic3Ryb2tlOiMxODE4MTg7c3Ryb2tlLXdpZHRoOjEuMDsiLz48cGF0aCBkPSJNNDY4LDExNjQuNjcxOSBMNDc4LDExNjQuNjcxOSBDNDkzLDExNjQuNjcxOSA0OTMsMTA4Mi4xOTUzIDUwOCwxMDgyLjE5NTMgTDUxOCwxMDgyLjE5NTMgIiBmaWxsPSJub25lIiBzdHlsZT0ic3Ryb2tlOiMxODE4MTg7c3Ryb2tlLXdpZHRoOjEuMDsiLz48cmVjdCBmaWxsPSIjRjFGMUYxIiBoZWlnaHQ9IjM0Ljk4NDQiIHJ4PSIxMi41IiByeT0iMTIuNSIgc3R5bGU9InN0cm9rZTojMTgxODE4O3N0cm9rZS13aWR0aDoxLjU7IiB3aWR0aD0iMTExIiB4PSI1MTgiIHk9IjExMTkuNjg3NSIvPjx0ZXh0IGZpbGw9IiMwMDAwMDAiIGZvbnQtZmFtaWx5PSJzYW5zLXNlcmlmIiBmb250LXNpemU9IjE0IiBsZW5ndGhBZGp1c3Q9InNwYWNpbmciIHRleHRMZW5ndGg9IjkxIiB4PSI1MjgiIHk9IjExNDIuOTIxOSI+Q1JNIC0gU2VydmljZTwvdGV4dD48cmVjdCBmaWxsPSIjRjFGMUYxIiBoZWlnaHQ9IjM0Ljk4NDQiIHJ4PSIxMi41IiByeT0iMTIuNSIgc3R5bGU9InN0cm9rZTojMTgxODE4O3N0cm9rZS13aWR0aDoxLjU7IiB3aWR0aD0iNDgzIiB4PSI2NzkiIHk9IjExMTkuNjg3NSIvPjx0ZXh0IGZpbGw9IiMwMDAwMDAiIGZvbnQtZmFtaWx5PSJzYW5zLXNlcmlmIiBmb250LXNpemU9IjE0IiBsZW5ndGhBZGp1c3Q9InNwYWNpbmciIHRleHRMZW5ndGg9IjQ2MyIgeD0iNjg5IiB5PSIxMTQyLjkyMTkiPkZhc2lsaXRhcyBhcHBvaW50bWVudCBkYW4gcGVuaW5kYWtsYW5qdXRhbiBrZWx1aGFuIHRlcmthaXQgc2VydmljZTwvdGV4dD48cGF0aCBkPSJNNjI5LDExMzcuMTc5NyBMNjM5LDExMzcuMTc5NyBDNjU0LDExMzcuMTc5NyA2NTQsMTEzNy4xNzk3IDY2OSwxMTM3LjE3OTcgTDY3OSwxMTM3LjE3OTcgIiBmaWxsPSJub25lIiBzdHlsZT0ic3Ryb2tlOiMxODE4MTg7c3Ryb2tlLXdpZHRoOjEuMDsiLz48cGF0aCBkPSJNNDY4LDExNjQuNjcxOSBMNDc4LDExNjQuNjcxOSBDNDkzLDExNjQuNjcxOSA0OTMsMTEzNy4xNzk3IDUwOCwxMTM3LjE3OTcgTDUxOCwxMTM3LjE3OTcgIiBmaWxsPSJub25lIiBzdHlsZT0ic3Ryb2tlOiMxODE4MTg7c3Ryb2tlLXdpZHRoOjEuMDsiLz48cmVjdCBmaWxsPSIjRjFGMUYxIiBoZWlnaHQ9IjM0Ljk4NDQiIHJ4PSIxMi41IiByeT0iMTIuNSIgc3R5bGU9InN0cm9rZTojMTgxODE4O3N0cm9rZS13aWR0aDoxLjU7IiB3aWR0aD0iMTY3IiB4PSI1MTgiIHk9IjExNzQuNjcxOSIvPjx0ZXh0IGZpbGw9IiMwMDAwMDAiIGZvbnQtZmFtaWx5PSJzYW5zLXNlcmlmIiBmb250LXNpemU9IjE0IiBsZW5ndGhBZGp1c3Q9InNwYWNpbmciIHRleHRMZW5ndGg9IjE0NyIgeD0iNTI4IiB5PSIxMTk3LjkwNjMiPkNSTSAtIFF1YWxpdHkgQ29udHJvbDwvdGV4dD48cmVjdCBmaWxsPSIjRjFGMUYxIiBoZWlnaHQ9IjM0Ljk4NDQiIHJ4PSIxMi41IiByeT0iMTIuNSIgc3R5bGU9InN0cm9rZTojMTgxODE4O3N0cm9rZS13aWR0aDoxLjU7IiB3aWR0aD0iMzU2IiB4PSI3MzUiIHk9IjExNzQuNjcxOSIvPjx0ZXh0IGZpbGw9IiMwMDAwMDAiIGZvbnQtZmFtaWx5PSJzYW5zLXNlcmlmIiBmb250LXNpemU9IjE0IiBsZW5ndGhBZGp1c3Q9InNwYWNpbmciIHRleHRMZW5ndGg9IjMzNiIgeD0iNzQ1IiB5PSIxMTk3LjkwNjMiPlBlbmluZGFrbGFuanV0YW4ga2VsdWhhbiB0ZXJrYWl0IGt1YWxpdGFzIHByb2R1azwvdGV4dD48cGF0aCBkPSJNNjg1LDExOTIuMTY0MSBMNjk1LDExOTIuMTY0MSBDNzEwLDExOTIuMTY0MSA3MTAsMTE5Mi4xNjQxIDcyNSwxMTkyLjE2NDEgTDczNSwxMTkyLjE2NDEgIiBmaWxsPSJub25lIiBzdHlsZT0ic3Ryb2tlOiMxODE4MTg7c3Ryb2tlLXdpZHRoOjEuMDsiLz48cGF0aCBkPSJNNDY4LDExNjQuNjcxOSBMNDc4LDExNjQuNjcxOSBDNDkzLDExNjQuNjcxOSA0OTMsMTE5Mi4xNjQxIDUwOCwxMTkyLjE2NDEgTDUxOCwxMTkyLjE2NDEgIiBmaWxsPSJub25lIiBzdHlsZT0ic3Ryb2tlOiMxODE4MTg7c3Ryb2tlLXdpZHRoOjEuMDsiLz48cmVjdCBmaWxsPSIjRjFGMUYxIiBoZWlnaHQ9IjM0Ljk4NDQiIHJ4PSIxMi41IiByeT0iMTIuNSIgc3R5bGU9InN0cm9rZTojMTgxODE4O3N0cm9rZS13aWR0aDoxLjU7IiB3aWR0aD0iMTE5IiB4PSI1MTgiIHk9IjEyMjkuNjU2MyIvPjx0ZXh0IGZpbGw9IiMwMDAwMDAiIGZvbnQtZmFtaWx5PSJzYW5zLXNlcmlmIiBmb250LXNpemU9IjE0IiBsZW5ndGhBZGp1c3Q9InNwYWNpbmciIHRleHRMZW5ndGg9Ijk5IiB4PSI1MjgiIHk9IjEyNTIuODkwNiI+Q1JNIC0gU2hpcG1lbnQ8L3RleHQ+PHJlY3QgZmlsbD0iI0YxRjFGMSIgaGVpZ2h0PSIzNC45ODQ0IiByeD0iMTIuNSIgcnk9IjEyLjUiIHN0eWxlPSJzdHJva2U6IzE4MTgxODtzdHJva2Utd2lkdGg6MS41OyIgd2lkdGg9IjE4MiIgeD0iNjg3IiB5PSIxMjI5LjY1NjMiLz48dGV4dCBmaWxsPSIjMDAwMDAwIiBmb250LWZhbWlseT0ic2Fucy1zZXJpZiIgZm9udC1zaXplPSIxNCIgbGVuZ3RoQWRqdXN0PSJzcGFjaW5nIiB0ZXh0TGVuZ3RoPSIxNjIiIHg9IjY5NyIgeT0iMTI1Mi44OTA2Ij5TdGF0dXMgcGVuZ2lyaW1hbiBvcmRlcjwvdGV4dD48cGF0aCBkPSJNNjM3LDEyNDcuMTQ4NCBMNjQ3LDEyNDcuMTQ4NCBDNjYyLDEyNDcuMTQ4NCA2NjIsMTI0Ny4xNDg0IDY3NywxMjQ3LjE0ODQgTDY4NywxMjQ3LjE0ODQgIiBmaWxsPSJub25lIiBzdHlsZT0ic3Ryb2tlOiMxODE4MTg7c3Ryb2tlLXdpZHRoOjEuMDsiLz48cGF0aCBkPSJNNDY4LDExNjQuNjcxOSBMNDc4LDExNjQuNjcxOSBDNDkzLDExNjQuNjcxOSA0OTMsMTI0Ny4xNDg0IDUwOCwxMjQ3LjE0ODQgTDUxOCwxMjQ3LjE0ODQgIiBmaWxsPSJub25lIiBzdHlsZT0ic3Ryb2tlOiMxODE4MTg7c3Ryb2tlLXdpZHRoOjEuMDsiLz48cmVjdCBmaWxsPSIjRjFGMUYxIiBoZWlnaHQ9IjM0Ljk4NDQiIHJ4PSIxMi41IiByeT0iMTIuNSIgc3R5bGU9InN0cm9rZTojMTgxODE4O3N0cm9rZS13aWR0aDoxLjU7IiB3aWR0aD0iMTgyIiB4PSI1MTgiIHk9IjEyODQuNjQwNiIvPjx0ZXh0IGZpbGw9IiMwMDAwMDAiIGZvbnQtZmFtaWx5PSJzYW5zLXNlcmlmIiBmb250LXNpemU9IjE0IiBsZW5ndGhBZGp1c3Q9InNwYWNpbmciIHRleHRMZW5ndGg9IjE2MiIgeD0iNTI4IiB5PSIxMzA3Ljg3NSI+Q1JNIC0gQnJhbmNoIE1hbmFnZW1lbnQ8L3RleHQ+PHJlY3QgZmlsbD0iI0YxRjFGMSIgaGVpZ2h0PSIzNC45ODQ0IiByeD0iMTIuNSIgcnk9IjEyLjUiIHN0eWxlPSJzdHJva2U6IzE4MTgxODtzdHJva2Utd2lkdGg6MS41OyIgd2lkdGg9IjMwNyIgeD0iNzUwIiB5PSIxMjg0LjY0MDYiLz48dGV4dCBmaWxsPSIjMDAwMDAwIiBmb250LWZhbWlseT0ic2Fucy1zZXJpZiIgZm9udC1zaXplPSIxNCIgbGVuZ3RoQWRqdXN0PSJzcGFjaW5nIiB0ZXh0TGVuZ3RoPSIyODciIHg9Ijc2MCIgeT0iMTMwNy44NzUiPlNpbmtyb25pc2FzaSBkYXRhIGFudGFyYSBwdXNhdCBkYW4gY2FiYW5nPC90ZXh0PjxwYXRoIGQ9Ik03MDAsMTMwMi4xMzI4IEw3MTAsMTMwMi4xMzI4IEM3MjUsMTMwMi4xMzI4IDcyNSwxMzAyLjEzMjggNzQwLDEzMDIuMTMyOCBMNzUwLDEzMDIuMTMyOCAiIGZpbGw9Im5vbmUiIHN0eWxlPSJzdHJva2U6IzE4MTgxODtzdHJva2Utd2lkdGg6MS4wOyIvPjxwYXRoIGQ9Ik00NjgsMTE2NC42NzE5IEw0NzgsMTE2NC42NzE5IEM0OTMsMTE2NC42NzE5IDQ5MywxMzAyLjEzMjggNTA4LDEzMDIuMTMyOCBMNTE4LDEzMDIuMTMyOCAiIGZpbGw9Im5vbmUiIHN0eWxlPSJzdHJva2U6IzE4MTgxODtzdHJva2Utd2lkdGg6MS4wOyIvPjxwYXRoIGQ9Ik0zMDAsMTI3NC42NDA2IEwzMTAsMTI3NC42NDA2IEMzMjUsMTI3NC42NDA2IDMyNSwxMTY0LjY3MTkgMzQwLDExNjQuNjcxOSBMMzUwLDExNjQuNjcxOSAiIGZpbGw9Im5vbmUiIHN0eWxlPSJzdHJva2U6IzE4MTgxODtzdHJva2Utd2lkdGg6MS4wOyIvPjxyZWN0IGZpbGw9IiNGMUYxRjEiIGhlaWdodD0iMzQuOTg0NCIgcng9IjEyLjUiIHJ5PSIxMi41IiBzdHlsZT0ic3Ryb2tlOiMxODE4MTg7c3Ryb2tlLXdpZHRoOjEuNTsiIHdpZHRoPSI4MyIgeD0iMzUwIiB5PSIxMzk0LjYwOTQiLz48dGV4dCBmaWxsPSIjMDAwMDAwIiBmb250LWZhbWlseT0ic2Fucy1zZXJpZiIgZm9udC1zaXplPSIxNCIgbGVuZ3RoQWRqdXN0PSJzcGFjaW5nIiB0ZXh0TGVuZ3RoPSI2MyIgeD0iMzYwIiB5PSIxNDE3Ljg0MzgiPkFzcGVrIENSTTwvdGV4dD48cmVjdCBmaWxsPSIjRjFGMUYxIiBoZWlnaHQ9IjM0Ljk4NDQiIHJ4PSIxMi41IiByeT0iMTIuNSIgc3R5bGU9InN0cm9rZTojMTgxODE4O3N0cm9rZS13aWR0aDoxLjU7IiB3aWR0aD0iNTUiIHg9IjQ4MyIgeT0iMTMzOS42MjUiLz48dGV4dCBmaWxsPSIjMDAwMDAwIiBmb250LWZhbWlseT0ic2Fucy1zZXJpZiIgZm9udC1zaXplPSIxNCIgbGVuZ3RoQWRqdXN0PSJzcGFjaW5nIiB0ZXh0TGVuZ3RoPSIzNSIgeD0iNDkzIiB5PSIxMzYyLjg1OTQiPk9yYW5nPC90ZXh0PjxyZWN0IGZpbGw9IiNGMUYxRjEiIGhlaWdodD0iMzQuOTg0NCIgcng9IjEyLjUiIHJ5PSIxMi41IiBzdHlsZT0ic3Ryb2tlOiMxODE4MTg7c3Ryb2tlLXdpZHRoOjEuNTsiIHdpZHRoPSIzNjQiIHg9IjU4OCIgeT0iMTMzOS42MjUiLz48dGV4dCBmaWxsPSIjMDAwMDAwIiBmb250LWZhbWlseT0ic2Fucy1zZXJpZiIgZm9udC1zaXplPSIxNCIgbGVuZ3RoQWRqdXN0PSJzcGFjaW5nIiB0ZXh0TGVuZ3RoPSIzNDQiIHg9IjU5OCIgeT0iMTM2Mi44NTk0Ij5JbnRlcm5hbGlhc2kgY2FyYSBiZXJwaWtpciBkYW4gcGVsYXRpaGFuIGthcnlhd2FuPC90ZXh0PjxwYXRoIGQ9Ik01MzgsMTM1Ny4xMTcyIEw1NDgsMTM1Ny4xMTcyIEM1NjMsMTM1Ny4xMTcyIDU2MywxMzU3LjExNzIgNTc4LDEzNTcuMTE3MiBMNTg4LDEzNTcuMTE3MiAiIGZpbGw9Im5vbmUiIHN0eWxlPSJzdHJva2U6IzE4MTgxODtzdHJva2Utd2lkdGg6MS4wOyIvPjxwYXRoIGQ9Ik00MzMsMTQxMi4xMDE2IEw0NDMsMTQxMi4xMDE2IEM0NTgsMTQxMi4xMDE2IDQ1OCwxMzU3LjExNzIgNDczLDEzNTcuMTE3MiBMNDgzLDEzNTcuMTE3MiAiIGZpbGw9Im5vbmUiIHN0eWxlPSJzdHJva2U6IzE4MTgxODtzdHJva2Utd2lkdGg6MS4wOyIvPjxyZWN0IGZpbGw9IiNGMUYxRjEiIGhlaWdodD0iMzQuOTg0NCIgcng9IjEyLjUiIHJ5PSIxMi41IiBzdHlsZT0ic3Ryb2tlOiMxODE4MTg7c3Ryb2tlLXdpZHRoOjEuNTsiIHdpZHRoPSIxNTMiIHg9IjQ4MyIgeT0iMTM5NC42MDk0Ii8+PHRleHQgZmlsbD0iIzAwMDAwMCIgZm9udC1mYW1pbHk9InNhbnMtc2VyaWYiIGZvbnQtc2l6ZT0iMTQiIGxlbmd0aEFkanVzdD0ic3BhY2luZyIgdGV4dExlbmd0aD0iMTMzIiB4PSI0OTMiIHk9IjE0MTcuODQzOCI+UHJvc2VzIGRhbiBQcm9zZWR1cjwvdGV4dD48cmVjdCBmaWxsPSIjRjFGMUYxIiBoZWlnaHQ9IjM0Ljk4NDQiIHJ4PSIxMi41IiByeT0iMTIuNSIgc3R5bGU9InN0cm9rZTojMTgxODE4O3N0cm9rZS13aWR0aDoxLjU7IiB3aWR0aD0iMzk4IiB4PSI2ODYiIHk9IjEzOTQuNjA5NCIvPjx0ZXh0IGZpbGw9IiMwMDAwMDAiIGZvbnQtZmFtaWx5PSJzYW5zLXNlcmlmIiBmb250LXNpemU9IjE0IiBsZW5ndGhBZGp1c3Q9InNwYWNpbmciIHRleHRMZW5ndGg9IjM3OCIgeD0iNjk2IiB5PSIxNDE3Ljg0MzgiPk1lbnl1c3VuIHByb3NlZHVyIHlhbmcgamVsYXMgdW50dWsgcGVsYXlhbmFuIHBlbGFuZ2dhbjwvdGV4dD48cGF0aCBkPSJNNjM2LDE0MTIuMTAxNiBMNjQ2LDE0MTIuMTAxNiBDNjYxLDE0MTIuMTAxNiA2NjEsMTQxMi4xMDE2IDY3NiwxNDEyLjEwMTYgTDY4NiwxNDEyLjEwMTYgIiBmaWxsPSJub25lIiBzdHlsZT0ic3Ryb2tlOiMxODE4MTg7c3Ryb2tlLXdpZHRoOjEuMDsiLz48cGF0aCBkPSJNNDMzLDE0MTIuMTAxNiBMNDQzLDE0MTIuMTAxNiBDNDU4LDE0MTIuMTAxNiA0NTgsMTQxMi4xMDE2IDQ3MywxNDEyLjEwMTYgTDQ4MywxNDEyLjEwMTYgIiBmaWxsPSJub25lIiBzdHlsZT0ic3Ryb2tlOiMxODE4MTg7c3Ryb2tlLXdpZHRoOjEuMDsiLz48cmVjdCBmaWxsPSIjRjFGMUYxIiBoZWlnaHQ9IjM0Ljk4NDQiIHJ4PSIxMi41IiByeT0iMTIuNSIgc3R5bGU9InN0cm9rZTojMTgxODE4O3N0cm9rZS13aWR0aDoxLjU7IiB3aWR0aD0iMTYxIiB4PSI0ODMiIHk9IjE0NDkuNTkzOCIvPjx0ZXh0IGZpbGw9IiMwMDAwMDAiIGZvbnQtZmFtaWx5PSJzYW5zLXNlcmlmIiBmb250LXNpemU9IjE0IiBsZW5ndGhBZGp1c3Q9InNwYWNpbmciIHRleHRMZW5ndGg9IjE0MSIgeD0iNDkzIiB5PSIxNDcyLjgyODEiPlNpc3RlbSBkYW4gVGVrbm9sb2dpPC90ZXh0PjxyZWN0IGZpbGw9IiNGMUYxRjEiIGhlaWdodD0iMzQuOTg0NCIgcng9IjEyLjUiIHJ5PSIxMi41IiBzdHlsZT0ic3Ryb2tlOiMxODE4MTg7c3Ryb2tlLXdpZHRoOjEuNTsiIHdpZHRoPSI1MDAiIHg9IjY5NCIgeT0iMTQ0OS41OTM4Ii8+PHRleHQgZmlsbD0iIzAwMDAwMCIgZm9udC1mYW1pbHk9InNhbnMtc2VyaWYiIGZvbnQtc2l6ZT0iMTQiIGxlbmd0aEFkanVzdD0ic3BhY2luZyIgdGV4dExlbmd0aD0iNDgwIiB4PSI3MDQiIHk9IjE0NzIuODI4MSI+UGVtaWxpaGFuIHRla25vbG9naSBDUk0geWFuZyB0ZXBhdCBkYW4gaW1wbGVtZW50YXNpIHNpc3RlbSB5YW5nIGJhaWs8L3RleHQ+PHBhdGggZD0iTTY0NCwxNDY3LjA4NTkgTDY1NCwxNDY3LjA4NTkgQzY2OSwxNDY3LjA4NTkgNjY5LDE0NjcuMDg1OSA2ODQsMTQ2Ny4wODU5IEw2OTQsMTQ2Ny4wODU5ICIgZmlsbD0ibm9uZSIgc3R5bGU9InN0cm9rZTojMTgxODE4O3N0cm9rZS13aWR0aDoxLjA7Ii8+PHBhdGggZD0iTTQzMywxNDEyLjEwMTYgTDQ0MywxNDEyLjEwMTYgQzQ1OCwxNDEyLjEwMTYgNDU4LDE0NjcuMDg1OSA0NzMsMTQ2Ny4wODU5IEw0ODMsMTQ2Ny4wODU5ICIgZmlsbD0ibm9uZSIgc3R5bGU9InN0cm9rZTojMTgxODE4O3N0cm9rZS13aWR0aDoxLjA7Ii8+PHBhdGggZD0iTTMwMCwxMjc0LjY0MDYgTDMxMCwxMjc0LjY0MDYgQzMyNSwxMjc0LjY0MDYgMzI1LDE0MTIuMTAxNiAzNDAsMTQxMi4xMDE2IEwzNTAsMTQxMi4xMDE2ICIgZmlsbD0ibm9uZSIgc3R5bGU9InN0cm9rZTojMTgxODE4O3N0cm9rZS13aWR0aDoxLjA7Ii8+PHJlY3QgZmlsbD0iI0YxRjFGMSIgaGVpZ2h0PSIzNC45ODQ0IiByeD0iMTIuNSIgcnk9IjEyLjUiIHN0eWxlPSJzdHJva2U6IzE4MTgxODtzdHJva2Utd2lkdGg6MS41OyIgd2lkdGg9IjIzMCIgeD0iMzUwIiB5PSIxNTU5LjU2MjUiLz48dGV4dCBmaWxsPSIjMDAwMDAwIiBmb250LWZhbWlseT0ic2Fucy1zZXJpZiIgZm9udC1zaXplPSIxNCIgbGVuZ3RoQWRqdXN0PSJzcGFjaW5nIiB0ZXh0TGVuZ3RoPSIyMTAiIHg9IjM2MCIgeT0iMTU4Mi43OTY5Ij5QZW5nYXJ1aCBJbnRlcm5ldCBUZXJoYWRhcCBDUk08L3RleHQ+PHJlY3QgZmlsbD0iI0YxRjFGMSIgaGVpZ2h0PSIzNC45ODQ0IiByeD0iMTIuNSIgcnk9IjEyLjUiIHN0eWxlPSJzdHJva2U6IzE4MTgxODtzdHJva2Utd2lkdGg6MS41OyIgd2lkdGg9IjI0NSIgeD0iNjMwIiB5PSIxNTA0LjU3ODEiLz48dGV4dCBmaWxsPSIjMDAwMDAwIiBmb250LWZhbWlseT0ic2Fucy1zZXJpZiIgZm9udC1zaXplPSIxNCIgbGVuZ3RoQWRqdXN0PSJzcGFjaW5nIiB0ZXh0TGVuZ3RoPSIyMjUiIHg9IjY0MCIgeT0iMTUyNy44MTI1Ij5Lb211bmlrYXNpIGphcmFrIGphdWggZGFuIGdsb2JhbDwvdGV4dD48cGF0aCBkPSJNNTgwLDE1NzcuMDU0NyBMNTkwLDE1NzcuMDU0NyBDNjA1LDE1NzcuMDU0NyA2MDUsMTUyMi4wNzAzIDYyMCwxNTIyLjA3MDMgTDYzMCwxNTIyLjA3MDMgIiBmaWxsPSJub25lIiBzdHlsZT0ic3Ryb2tlOiMxODE4MTg7c3Ryb2tlLXdpZHRoOjEuMDsiLz48cmVjdCBmaWxsPSIjRjFGMUYxIiBoZWlnaHQ9IjM0Ljk4NDQiIHJ4PSIxMi41IiByeT0iMTIuNSIgc3R5bGU9InN0cm9rZTojMTgxODE4O3N0cm9rZS13aWR0aDoxLjU7IiB3aWR0aD0iNDMzIiB4PSI2MzAiIHk9IjE1NTkuNTYyNSIvPjx0ZXh0IGZpbGw9IiMwMDAwMDAiIGZvbnQtZmFtaWx5PSJzYW5zLXNlcmlmIiBmb250LXNpemU9IjE0IiBsZW5ndGhBZGp1c3Q9InNwYWNpbmciIHRleHRMZW5ndGg9IjQxMyIgeD0iNjQwIiB5PSIxNTgyLjc5NjkiPk1lbmluZ2thdGthbiBsYWJhIGRlbmdhbiBodWJ1bmdhbiBwZWxhbmdnYW4geWFuZyBsZWJpaCBiYWlrPC90ZXh0PjxwYXRoIGQ9Ik01ODAsMTU3Ny4wNTQ3IEw1OTAsMTU3Ny4wNTQ3IEM2MDUsMTU3Ny4wNTQ3IDYwNSwxNTc3LjA1NDcgNjIwLDE1NzcuMDU0NyBMNjMwLDE1NzcuMDU0NyAiIGZpbGw9Im5vbmUiIHN0eWxlPSJzdHJva2U6IzE4MTgxODtzdHJva2Utd2lkdGg6MS4wOyIvPjxyZWN0IGZpbGw9IiNGMUYxRjEiIGhlaWdodD0iMzQuOTg0NCIgcng9IjEyLjUiIHJ5PSIxMi41IiBzdHlsZT0ic3Ryb2tlOiMxODE4MTg7c3Ryb2tlLXdpZHRoOjEuNTsiIHdpZHRoPSI0NDAiIHg9IjYzMCIgeT0iMTYxNC41NDY5Ii8+PHRleHQgZmlsbD0iIzAwMDAwMCIgZm9udC1mYW1pbHk9InNhbnMtc2VyaWYiIGZvbnQtc2l6ZT0iMTQiIGxlbmd0aEFkanVzdD0ic3BhY2luZyIgdGV4dExlbmd0aD0iNDIwIiB4PSI2NDAiIHk9IjE2MzcuNzgxMyI+TWVsYWt1a2FuIGFuYWxpc2lzIGRhdGEgdW50dWsgcGVuaW5na2F0YW4gcHJvZHVrIGRhbiBsYXlhbmFuPC90ZXh0PjxwYXRoIGQ9Ik01ODAsMTU3Ny4wNTQ3IEw1OTAsMTU3Ny4wNTQ3IEM2MDUsMTU3Ny4wNTQ3IDYwNSwxNjMyLjAzOTEgNjIwLDE2MzIuMDM5MSBMNjMwLDE2MzIuMDM5MSAiIGZpbGw9Im5vbmUiIHN0eWxlPSJzdHJva2U6IzE4MTgxODtzdHJva2Utd2lkdGg6MS4wOyIvPjxwYXRoIGQ9Ik0zMDAsMTI3NC42NDA2IEwzMTAsMTI3NC42NDA2IEMzMjUsMTI3NC42NDA2IDMyNSwxNTc3LjA1NDcgMzQwLDE1NzcuMDU0NyBMMzUwLDE1NzcuMDU0NyAiIGZpbGw9Im5vbmUiIHN0eWxlPSJzdHJva2U6IzE4MTgxODtzdHJva2Utd2lkdGg6MS4wOyIvPjxyZWN0IGZpbGw9IiNGMUYxRjEiIGhlaWdodD0iMzQuOTg0NCIgcng9IjEyLjUiIHJ5PSIxMi41IiBzdHlsZT0ic3Ryb2tlOiMxODE4MTg7c3Ryb2tlLXdpZHRoOjEuNTsiIHdpZHRoPSIyMzciIHg9IjM1MCIgeT0iMTgzNC40ODQ0Ii8+PHRleHQgZmlsbD0iIzAwMDAwMCIgZm9udC1mYW1pbHk9InNhbnMtc2VyaWYiIGZvbnQtc2l6ZT0iMTQiIGxlbmd0aEFkanVzdD0ic3BhY2luZyIgdGV4dExlbmd0aD0iMjE3IiB4PSIzNjAiIHk9IjE4NTcuNzE4OCI+UG90ZW5zaSwgRnVuZ3NpIGRhbiBNYW5mYWF0IENSTTwvdGV4dD48cmVjdCBmaWxsPSIjRjFGMUYxIiBoZWlnaHQ9IjM0Ljk4NDQiIHJ4PSIxMi41IiByeT0iMTIuNSIgc3R5bGU9InN0cm9rZTojMTgxODE4O3N0cm9rZS13aWR0aDoxLjU7IiB3aWR0aD0iOTciIHg9IjYzNyIgeT0iMTY5Ny4wMjM0Ii8+PHRleHQgZmlsbD0iIzAwMDAwMCIgZm9udC1mYW1pbHk9InNhbnMtc2VyaWYiIGZvbnQtc2l6ZT0iMTQiIGxlbmd0aEFkanVzdD0ic3BhY2luZyIgdGV4dExlbmd0aD0iNzciIHg9IjY0NyIgeT0iMTcyMC4yNTc4Ij5Qb3RlbnNpIENSTTwvdGV4dD48cmVjdCBmaWxsPSIjRjFGMUYxIiBoZWlnaHQ9IjM0Ljk4NDQiIHJ4PSIxMi41IiByeT0iMTIuNSIgc3R5bGU9InN0cm9rZTojMTgxODE4O3N0cm9rZS13aWR0aDoxLjU7IiB3aWR0aD0iMjE4IiB4PSI3ODQiIHk9IjE2NjkuNTMxMyIvPjx0ZXh0IGZpbGw9IiMwMDAwMDAiIGZvbnQtZmFtaWx5PSJzYW5zLXNlcmlmIiBmb250LXNpemU9IjE0IiBsZW5ndGhBZGp1c3Q9InNwYWNpbmciIHRleHRMZW5ndGg9IjE5OCIgeD0iNzk0IiB5PSIxNjkyLjc2NTYiPk1lbmluZ2thdGthbiBqdW1sYWgga29uc3VtZW48L3RleHQ+PHBhdGggZD0iTTczNCwxNzE0LjUxNTYgTDc0NCwxNzE0LjUxNTYgQzc1OSwxNzE0LjUxNTYgNzU5LDE2ODcuMDIzNCA3NzQsMTY4Ny4wMjM0IEw3ODQsMTY4Ny4wMjM0ICIgZmlsbD0ibm9uZSIgc3R5bGU9InN0cm9rZTojMTgxODE4O3N0cm9rZS13aWR0aDoxLjA7Ii8+PHJlY3QgZmlsbD0iI0YxRjFGMSIgaGVpZ2h0PSIzNC45ODQ0IiByeD0iMTIuNSIgcnk9IjEyLjUiIHN0eWxlPSJzdHJva2U6IzE4MTgxODtzdHJva2Utd2lkdGg6MS41OyIgd2lkdGg9IjMyMyIgeD0iNzg0IiB5PSIxNzI0LjUxNTYiLz48dGV4dCBmaWxsPSIjMDAwMDAwIiBmb250LWZhbWlseT0ic2Fucy1zZXJpZiIgZm9udC1zaXplPSIxNCIgbGVuZ3RoQWRqdXN0PSJzcGFjaW5nIiB0ZXh0TGVuZ3RoPSIzMDMiIHg9Ijc5NCIgeT0iMTc0Ny43NSI+TWVuZ2V0YWh1aSBrZWJ1dHVoYW4ga29uc3VtZW4gZGkgbWFzYSBkZXBhbjwvdGV4dD48cGF0aCBkPSJNNzM0LDE3MTQuNTE1NiBMNzQ0LDE3MTQuNTE1NiBDNzU5LDE3MTQuNTE1NiA3NTksMTc0Mi4wMDc4IDc3NCwxNzQyLjAwNzggTDc4NCwxNzQyLjAwNzggIiBmaWxsPSJub25lIiBzdHlsZT0ic3Ryb2tlOiMxODE4MTg7c3Ryb2tlLXdpZHRoOjEuMDsiLz48cGF0aCBkPSJNNTg3LDE4NTEuOTc2NiBMNTk3LDE4NTEuOTc2NiBDNjEyLDE4NTEuOTc2NiA2MTIsMTcxNC41MTU2IDYyNywxNzE0LjUxNTYgTDYzNywxNzE0LjUxNTYgIiBmaWxsPSJub25lIiBzdHlsZT0ic3Ryb2tlOiMxODE4MTg7c3Ryb2tlLXdpZHRoOjEuMDsiLz48cmVjdCBmaWxsPSIjRjFGMUYxIiBoZWlnaHQ9IjM0Ljk4NDQiIHJ4PSIxMi41IiByeT0iMTIuNSIgc3R5bGU9InN0cm9rZTojMTgxODE4O3N0cm9rZS13aWR0aDoxLjU7IiB3aWR0aD0iOTAiIHg9IjYzNyIgeT0iMTgwNi45OTIyIi8+PHRleHQgZmlsbD0iIzAwMDAwMCIgZm9udC1mYW1pbHk9InNhbnMtc2VyaWYiIGZvbnQtc2l6ZT0iMTQiIGxlbmd0aEFkanVzdD0ic3BhY2luZyIgdGV4dExlbmd0aD0iNzAiIHg9IjY0NyIgeT0iMTgzMC4yMjY2Ij5GdW5nc2kgQ1JNPC90ZXh0PjxyZWN0IGZpbGw9IiNGMUYxRjEiIGhlaWdodD0iMzQuOTg0NCIgcng9IjEyLjUiIHJ5PSIxMi41IiBzdHlsZT0ic3Ryb2tlOiMxODE4MTg7c3Ryb2tlLXdpZHRoOjEuNTsiIHdpZHRoPSIzNDIiIHg9Ijc3NyIgeT0iMTc3OS41Ii8+PHRleHQgZmlsbD0iIzAwMDAwMCIgZm9udC1mYW1pbHk9InNhbnMtc2VyaWYiIGZvbnQtc2l6ZT0iMTQiIGxlbmd0aEFkanVzdD0ic3BhY2luZyIgdGV4dExlbmd0aD0iMzIyIiB4PSI3ODciIHk9IjE4MDIuNzM0NCI+TWVuZ2lkZW50aWZpa2FzaSBmYWt0b3IgcGVudGluZyBiYWdpIHBlbGFuZ2dhbjwvdGV4dD48cGF0aCBkPSJNNzI3LDE4MjQuNDg0NCBMNzM3LDE4MjQuNDg0NCBDNzUyLDE4MjQuNDg0NCA3NTIsMTc5Ni45OTIyIDc2NywxNzk2Ljk5MjIgTDc3NywxNzk2Ljk5MjIgIiBmaWxsPSJub25lIiBzdHlsZT0ic3Ryb2tlOiMxODE4MTg7c3Ryb2tlLXdpZHRoOjEuMDsiLz48cmVjdCBmaWxsPSIjRjFGMUYxIiBoZWlnaHQ9IjM0Ljk4NDQiIHJ4PSIxMi41IiByeT0iMTIuNSIgc3R5bGU9InN0cm9rZTojMTgxODE4O3N0cm9rZS13aWR0aDoxLjU7IiB3aWR0aD0iMzAxIiB4PSI3NzciIHk9IjE4MzQuNDg0NCIvPjx0ZXh0IGZpbGw9IiMwMDAwMDAiIGZvbnQtZmFtaWx5PSJzYW5zLXNlcmlmIiBmb250LXNpemU9IjE0IiBsZW5ndGhBZGp1c3Q9InNwYWNpbmciIHRleHRMZW5ndGg9IjI4MSIgeD0iNzg3IiB5PSIxODU3LjcxODgiPk1lbmFuZ2FuaSBrZWx1aGFuIGRhbiBtZW5jYXRhdCBwZW5qdWFsYW48L3RleHQ+PHBhdGggZD0iTTcyNywxODI0LjQ4NDQgTDczNywxODI0LjQ4NDQgQzc1MiwxODI0LjQ4NDQgNzUyLDE4NTEuOTc2NiA3NjcsMTg1MS45NzY2IEw3NzcsMTg1MS45NzY2ICIgZmlsbD0ibm9uZSIgc3R5bGU9InN0cm9rZTojMTgxODE4O3N0cm9rZS13aWR0aDoxLjA7Ii8+PHBhdGggZD0iTTU4NywxODUxLjk3NjYgTDU5NywxODUxLjk3NjYgQzYxMiwxODUxLjk3NjYgNjEyLDE4MjQuNDg0NCA2MjcsMTgyNC40ODQ0IEw2MzcsMTgyNC40ODQ0ICIgZmlsbD0ibm9uZSIgc3R5bGU9InN0cm9rZTojMTgxODE4O3N0cm9rZS13aWR0aDoxLjA7Ii8+PHJlY3QgZmlsbD0iI0YxRjFGMSIgaGVpZ2h0PSIzNC45ODQ0IiByeD0iMTIuNSIgcnk9IjEyLjUiIHN0eWxlPSJzdHJva2U6IzE4MTgxODtzdHJva2Utd2lkdGg6MS41OyIgd2lkdGg9Ijk3IiB4PSI2MzciIHk9IjE5NDQuNDUzMSIvPjx0ZXh0IGZpbGw9IiMwMDAwMDAiIGZvbnQtZmFtaWx5PSJzYW5zLXNlcmlmIiBmb250LXNpemU9IjE0IiBsZW5ndGhBZGp1c3Q9InNwYWNpbmciIHRleHRMZW5ndGg9Ijc3IiB4PSI2NDciIHk9IjE5NjcuNjg3NSI+TWFuZmFhdCBDUk08L3RleHQ+PHJlY3QgZmlsbD0iI0YxRjFGMSIgaGVpZ2h0PSIzNC45ODQ0IiByeD0iMTIuNSIgcnk9IjEyLjUiIHN0eWxlPSJzdHJva2U6IzE4MTgxODtzdHJva2Utd2lkdGg6MS41OyIgd2lkdGg9IjE3NiIgeD0iNzg0IiB5PSIxODg5LjQ2ODgiLz48dGV4dCBmaWxsPSIjMDAwMDAwIiBmb250LWZhbWlseT0ic2Fucy1zZXJpZiIgZm9udC1zaXplPSIxNCIgbGVuZ3RoQWRqdXN0PSJzcGFjaW5nIiB0ZXh0TGVuZ3RoPSIxNTYiIHg9Ijc5NCIgeT0iMTkxMi43MDMxIj5NZW5hbWJhaCBrb25zdW1lbiBiYXJ1PC90ZXh0PjxwYXRoIGQ9Ik03MzQsMTk2MS45NDUzIEw3NDQsMTk2MS45NDUzIEM3NTksMTk2MS45NDUzIDc1OSwxOTA2Ljk2MDkgNzc0LDE5MDYuOTYwOSBMNzg0LDE5MDYuOTYwOSAiIGZpbGw9Im5vbmUiIHN0eWxlPSJzdHJva2U6IzE4MTgxODtzdHJva2Utd2lkdGg6MS4wOyIvPjxyZWN0IGZpbGw9IiNGMUYxRjEiIGhlaWdodD0iMzQuOTg0NCIgcng9IjEyLjUiIHJ5PSIxMi41IiBzdHlsZT0ic3Ryb2tlOiMxODE4MTg7c3Ryb2tlLXdpZHRoOjEuNTsiIHdpZHRoPSIyNzIiIHg9Ijc4NCIgeT0iMTk0NC40NTMxIi8+PHRleHQgZmlsbD0iIzAwMDAwMCIgZm9udC1mYW1pbHk9InNhbnMtc2VyaWYiIGZvbnQtc2l6ZT0iMTQiIGxlbmd0aEFkanVzdD0ic3BhY2luZyIgdGV4dExlbmd0aD0iMjUyIiB4PSI3OTQiIHk9IjE5NjcuNjg3NSI+TWVuZ2FuYWxpc2EgcG9sYSB0cmFuc2Frc2kgcGVsYW5nZ2FuPC90ZXh0PjxwYXRoIGQ9Ik03MzQsMTk2MS45NDUzIEw3NDQsMTk2MS45NDUzIEM3NTksMTk2MS45NDUzIDc1OSwxOTYxLjk0NTMgNzc0LDE5NjEuOTQ1MyBMNzg0LDE5NjEuOTQ1MyAiIGZpbGw9Im5vbmUiIHN0eWxlPSJzdHJva2U6IzE4MTgxODtzdHJva2Utd2lkdGg6MS4wOyIvPjxyZWN0IGZpbGw9IiNGMUYxRjEiIGhlaWdodD0iMzQuOTg0NCIgcng9IjEyLjUiIHJ5PSIxMi41IiBzdHlsZT0ic3Ryb2tlOiMxODE4MTg7c3Ryb2tlLXdpZHRoOjEuNTsiIHdpZHRoPSIyMjMiIHg9Ijc4NCIgeT0iMTk5OS40Mzc1Ii8+PHRleHQgZmlsbD0iIzAwMDAwMCIgZm9udC1mYW1pbHk9InNhbnMtc2VyaWYiIGZvbnQtc2l6ZT0iMTQiIGxlbmd0aEFkanVzdD0ic3BhY2luZyIgdGV4dExlbmd0aD0iMjAzIiB4PSI3OTQiIHk9IjIwMjIuNjcxOSI+TWVuZ3VyYW5naSByaXNpa28gb3BlcmFzaW9uYWw8L3RleHQ+PHBhdGggZD0iTTczNCwxOTYxLjk0NTMgTDc0NCwxOTYxLjk0NTMgQzc1OSwxOTYxLjk0NTMgNzU5LDIwMTYuOTI5NyA3NzQsMjAxNi45Mjk3IEw3ODQsMjAxNi45Mjk3ICIgZmlsbD0ibm9uZSIgc3R5bGU9InN0cm9rZTojMTgxODE4O3N0cm9rZS13aWR0aDoxLjA7Ii8+PHBhdGggZD0iTTU4NywxODUxLjk3NjYgTDU5NywxODUxLjk3NjYgQzYxMiwxODUxLjk3NjYgNjEyLDE5NjEuOTQ1MyA2MjcsMTk2MS45NDUzIEw2MzcsMTk2MS45NDUzICIgZmlsbD0ibm9uZSIgc3R5bGU9InN0cm9rZTojMTgxODE4O3N0cm9rZS13aWR0aDoxLjA7Ii8+PHBhdGggZD0iTTMwMCwxMjc0LjY0MDYgTDMxMCwxMjc0LjY0MDYgQzMyNSwxMjc0LjY0MDYgMzI1LDE4NTEuOTc2NiAzNDAsMTg1MS45NzY2IEwzNTAsMTg1MS45NzY2ICIgZmlsbD0ibm9uZSIgc3R5bGU9InN0cm9rZTojMTgxODE4O3N0cm9rZS13aWR0aDoxLjA7Ii8+PHJlY3QgZmlsbD0iI0YxRjFGMSIgaGVpZ2h0PSIzNC45ODQ0IiByeD0iMTIuNSIgcnk9IjEyLjUiIHN0eWxlPSJzdHJva2U6IzE4MTgxODtzdHJva2Utd2lkdGg6MS41OyIgd2lkdGg9IjEzNCIgeD0iMzUwIiB5PSIyMTM2Ljg5ODQiLz48dGV4dCBmaWxsPSIjMDAwMDAwIiBmb250LWZhbWlseT0ic2Fucy1zZXJpZiIgZm9udC1zaXplPSIxNCIgbGVuZ3RoQWRqdXN0PSJzcGFjaW5nIiB0ZXh0TGVuZ3RoPSIxMTQiIHg9IjM2MCIgeT0iMjE2MC4xMzI4Ij5JbXBsZW1lbnRhc2kgQ1JNPC90ZXh0PjxyZWN0IGZpbGw9IiNGMUYxRjEiIGhlaWdodD0iMzQuOTg0NCIgcng9IjEyLjUiIHJ5PSIxMi41IiBzdHlsZT0ic3Ryb2tlOiMxODE4MTg7c3Ryb2tlLXdpZHRoOjEuNTsiIHdpZHRoPSIyODYiIHg9IjUzNCIgeT0iMjA1NC40MjE5Ii8+PHRleHQgZmlsbD0iIzAwMDAwMCIgZm9udC1mYW1pbHk9InNhbnMtc2VyaWYiIGZvbnQtc2l6ZT0iMTQiIGxlbmd0aEFkanVzdD0ic3BhY2luZyIgdGV4dExlbmd0aD0iMjY2IiB4PSI1NDQiIHk9IjIwNzcuNjU2MyI+RmFrdG9yIEt1bmNpOiBPcmFuZywgUHJvc2VzLCBUZWtub2xvZ2k8L3RleHQ+PHBhdGggZD0iTTQ4NCwyMTU0LjM5MDYgTDQ5NCwyMTU0LjM5MDYgQzUwOSwyMTU0LjM5MDYgNTA5LDIwNzEuOTE0MSA1MjQsMjA3MS45MTQxIEw1MzQsMjA3MS45MTQxICIgZmlsbD0ibm9uZSIgc3R5bGU9InN0cm9rZTojMTgxODE4O3N0cm9rZS13aWR0aDoxLjA7Ii8+PHJlY3QgZmlsbD0iI0YxRjFGMSIgaGVpZ2h0PSIzNC45ODQ0IiByeD0iMTIuNSIgcnk9IjEyLjUiIHN0eWxlPSJzdHJva2U6IzE4MTgxODtzdHJva2Utd2lkdGg6MS41OyIgd2lkdGg9IjE1NiIgeD0iNTM0IiB5PSIyMTY0LjM5MDYiLz48dGV4dCBmaWxsPSIjMDAwMDAwIiBmb250LWZhbWlseT0ic2Fucy1zZXJpZiIgZm9udC1zaXplPSIxNCIgbGVuZ3RoQWRqdXN0PSJzcGFjaW5nIiB0ZXh0TGVuZ3RoPSIxMzYiIHg9IjU0NCIgeT0iMjE4Ny42MjUiPkVsZW1lbiBJbXBsZW1lbnRhc2k8L3RleHQ+PHJlY3QgZmlsbD0iI0YxRjFGMSIgaGVpZ2h0PSIzNC45ODQ0IiByeD0iMTIuNSIgcnk9IjEyLjUiIHN0eWxlPSJzdHJva2U6IzE4MTgxODtzdHJva2Utd2lkdGg6MS41OyIgd2lkdGg9IjE2OSIgeD0iNzQwIiB5PSIyMTA5LjQwNjMiLz48dGV4dCBmaWxsPSIjMDAwMDAwIiBmb250LWZhbWlseT0ic2Fucy1zZXJpZiIgZm9udC1zaXplPSIxNCIgbGVuZ3RoQWRqdXN0PSJzcGFjaW5nIiB0ZXh0TGVuZ3RoPSIxNDkiIHg9Ijc1MCIgeT0iMjEzMi42NDA2Ij5PdG9tYXRpc2FzaSBwZW1hc2FyYW48L3RleHQ+PHBhdGggZD0iTTY5MCwyMTgxLjg4MjggTDcwMCwyMTgxLjg4MjggQzcxNSwyMTgxLjg4MjggNzE1LDIxMjYuODk4NCA3MzAsMjEyNi44OTg0IEw3NDAsMjEyNi44OTg0ICIgZmlsbD0ibm9uZSIgc3R5bGU9InN0cm9rZTojMTgxODE4O3N0cm9rZS13aWR0aDoxLjA7Ii8+PHJlY3QgZmlsbD0iI0YxRjFGMSIgaGVpZ2h0PSIzNC45ODQ0IiByeD0iMTIuNSIgcnk9IjEyLjUiIHN0eWxlPSJzdHJva2U6IzE4MTgxODtzdHJva2Utd2lkdGg6MS41OyIgd2lkdGg9IjIyNSIgeD0iNzQwIiB5PSIyMTY0LjM5MDYiLz48dGV4dCBmaWxsPSIjMDAwMDAwIiBmb250LWZhbWlseT0ic2Fucy1zZXJpZiIgZm9udC1zaXplPSIxNCIgbGVuZ3RoQWRqdXN0PSJzcGFjaW5nIiB0ZXh0TGVuZ3RoPSIyMDUiIHg9Ijc1MCIgeT0iMjE4Ny42MjUiPlB1c2F0IHBlbGF5YW5hbiAoQ2FsbCBDZW50ZXIpPC90ZXh0PjxwYXRoIGQ9Ik02OTAsMjE4MS44ODI4IEw3MDAsMjE4MS44ODI4IEM3MTUsMjE4MS44ODI4IDcxNSwyMTgxLjg4MjggNzMwLDIxODEuODgyOCBMNzQwLDIxODEuODgyOCAiIGZpbGw9Im5vbmUiIHN0eWxlPSJzdHJva2U6IzE4MTgxODtzdHJva2Utd2lkdGg6MS4wOyIvPjxyZWN0IGZpbGw9IiNGMUYxRjEiIGhlaWdodD0iMzQuOTg0NCIgcng9IjEyLjUiIHJ5PSIxMi41IiBzdHlsZT0ic3Ryb2tlOiMxODE4MTg7c3Ryb2tlLXdpZHRoOjEuNTsiIHdpZHRoPSIyNzQiIHg9Ijc0MCIgeT0iMjIxOS4zNzUiLz48dGV4dCBmaWxsPSIjMDAwMDAwIiBmb250LWZhbWlseT0ic2Fucy1zZXJpZiIgZm9udC1zaXplPSIxNCIgbGVuZ3RoQWRqdXN0PSJzcGFjaW5nIiB0ZXh0TGVuZ3RoPSIyNTQiIHg9Ijc1MCIgeT0iMjI0Mi42MDk0Ij5QZW5nZ3VkYW5nYW4gZGF0YSAoRGF0YSBXYXJlaG91c2luZyk8L3RleHQ+PHBhdGggZD0iTTY5MCwyMTgxLjg4MjggTDcwMCwyMTgxLjg4MjggQzcxNSwyMTgxLjg4MjggNzE1LDIyMzYuODY3MiA3MzAsMjIzNi44NjcyIEw3NDAsMjIzNi44NjcyICIgZmlsbD0ibm9uZSIgc3R5bGU9InN0cm9rZTojMTgxODE4O3N0cm9rZS13aWR0aDoxLjA7Ii8+PHBhdGggZD0iTTQ4NCwyMTU0LjM5MDYgTDQ5NCwyMTU0LjM5MDYgQzUwOSwyMTU0LjM5MDYgNTA5LDIxODEuODgyOCA1MjQsMjE4MS44ODI4IEw1MzQsMjE4MS44ODI4ICIgZmlsbD0ibm9uZSIgc3R5bGU9InN0cm9rZTojMTgxODE4O3N0cm9rZS13aWR0aDoxLjA7Ii8+PHBhdGggZD0iTTMwMCwxMjc0LjY0MDYgTDMxMCwxMjc0LjY0MDYgQzMyNSwxMjc0LjY0MDYgMzI1LDIxNTQuMzkwNiAzNDAsMjE1NC4zOTA2IEwzNTAsMjE1NC4zOTA2ICIgZmlsbD0ibm9uZSIgc3R5bGU9InN0cm9rZTojMTgxODE4O3N0cm9rZS13aWR0aDoxLjA7Ii8+PHJlY3QgZmlsbD0iI0YxRjFGMSIgaGVpZ2h0PSIzNC45ODQ0IiByeD0iMTIuNSIgcnk9IjEyLjUiIHN0eWxlPSJzdHJva2U6IzE4MTgxODtzdHJva2Utd2lkdGg6MS41OyIgd2lkdGg9IjE4MSIgeD0iMzUwIiB5PSIyMzI5LjM0MzgiLz48dGV4dCBmaWxsPSIjMDAwMDAwIiBmb250LWZhbWlseT0ic2Fucy1zZXJpZiIgZm9udC1zaXplPSIxNCIgbGVuZ3RoQWRqdXN0PSJzcGFjaW5nIiB0ZXh0TGVuZ3RoPSIxNjEiIHg9IjM2MCIgeT0iMjM1Mi41NzgxIj5UZWtub2xvZ2kgUGVuZHVrdW5nIENSTTwvdGV4dD48cmVjdCBmaWxsPSIjRjFGMUYxIiBoZWlnaHQ9IjM0Ljk4NDQiIHJ4PSIxMi41IiByeT0iMTIuNSIgc3R5bGU9InN0cm9rZTojMTgxODE4O3N0cm9rZS13aWR0aDoxLjU7IiB3aWR0aD0iMTQwIiB4PSI1ODEiIHk9IjIyNzQuMzU5NCIvPjx0ZXh0IGZpbGw9IiMwMDAwMDAiIGZvbnQtZmFtaWx5PSJzYW5zLXNlcmlmIiBmb250LXNpemU9IjE0IiBsZW5ndGhBZGp1c3Q9InNwYWNpbmciIHRleHRMZW5ndGg9IjEyMCIgeD0iNTkxIiB5PSIyMjk3LjU5MzgiPkN1c3RvbWVyIERhdGFiYXNlPC90ZXh0PjxyZWN0IGZpbGw9IiNGMUYxRjEiIGhlaWdodD0iMzQuOTg0NCIgcng9IjEyLjUiIHJ5PSIxMi41IiBzdHlsZT0ic3Ryb2tlOiMxODE4MTg7c3Ryb2tlLXdpZHRoOjEuNTsiIHdpZHRoPSIyNjYiIHg9Ijc3MSIgeT0iMjI3NC4zNTk0Ii8+PHRleHQgZmlsbD0iIzAwMDAwMCIgZm9udC1mYW1pbHk9InNhbnMtc2VyaWYiIGZvbnQtc2l6ZT0iMTQiIGxlbmd0aEFkanVzdD0ic3BhY2luZyIgdGV4dExlbmd0aD0iMjQ2IiB4PSI3ODEiIHk9IjIyOTcuNTkzOCI+U2lzdGVtIGRhdGEgdGVycGFkdSB1bnR1ayBwZWxhbmdnYW48L3RleHQ+PHBhdGggZD0iTTcyMSwyMjkxLjg1MTYgTDczMSwyMjkxLjg1MTYgQzc0NiwyMjkxLjg1MTYgNzQ2LDIyOTEuODUxNiA3NjEsMjI5MS44NTE2IEw3NzEsMjI5MS44NTE2ICIgZmlsbD0ibm9uZSIgc3R5bGU9InN0cm9rZTojMTgxODE4O3N0cm9rZS13aWR0aDoxLjA7Ii8+PHBhdGggZD0iTTUzMSwyMzQ2LjgzNTkgTDU0MSwyMzQ2LjgzNTkgQzU1NiwyMzQ2LjgzNTkgNTU2LDIyOTEuODUxNiA1NzEsMjI5MS44NTE2IEw1ODEsMjI5MS44NTE2ICIgZmlsbD0ibm9uZSIgc3R5bGU9InN0cm9rZTojMTgxODE4O3N0cm9rZS13aWR0aDoxLjA7Ii8+PHJlY3QgZmlsbD0iI0YxRjFGMSIgaGVpZ2h0PSIzNC45ODQ0IiByeD0iMTIuNSIgcnk9IjEyLjUiIHN0eWxlPSJzdHJva2U6IzE4MTgxODtzdHJva2Utd2lkdGg6MS41OyIgd2lkdGg9IjE2OCIgeD0iNTgxIiB5PSIyMzI5LjM0MzgiLz48dGV4dCBmaWxsPSIjMDAwMDAwIiBmb250LWZhbWlseT0ic2Fucy1zZXJpZiIgZm9udC1zaXplPSIxNCIgbGVuZ3RoQWRqdXN0PSJzcGFjaW5nIiB0ZXh0TGVuZ3RoPSIxNDgiIHg9IjU5MSIgeT0iMjM1Mi41NzgxIj5DdXN0b21lciBJbnRlbGxpZ2VuY2U8L3RleHQ+PHJlY3QgZmlsbD0iI0YxRjFGMSIgaGVpZ2h0PSIzNC45ODQ0IiByeD0iMTIuNSIgcnk9IjEyLjUiIHN0eWxlPSJzdHJva2U6IzE4MTgxODtzdHJva2Utd2lkdGg6MS41OyIgd2lkdGg9IjMxNSIgeD0iNzk5IiB5PSIyMzI5LjM0MzgiLz48dGV4dCBmaWxsPSIjMDAwMDAwIiBmb250LWZhbWlseT0ic2Fucy1zZXJpZiIgZm9udC1zaXplPSIxNCIgbGVuZ3RoQWRqdXN0PSJzcGFjaW5nIiB0ZXh0TGVuZ3RoPSIyOTUiIHg9IjgwOSIgeT0iMjM1Mi41NzgxIj5TZWdtZW50YXNpIHBlbGFuZ2dhbiBiZXJkYXNhcmthbiBrZWJ1dHVoYW48L3RleHQ+PHBhdGggZD0iTTc0OSwyMzQ2LjgzNTkgTDc1OSwyMzQ2LjgzNTkgQzc3NCwyMzQ2LjgzNTkgNzc0LDIzNDYuODM1OSA3ODksMjM0Ni44MzU5IEw3OTksMjM0Ni44MzU5ICIgZmlsbD0ibm9uZSIgc3R5bGU9InN0cm9rZTojMTgxODE4O3N0cm9rZS13aWR0aDoxLjA7Ii8+PHBhdGggZD0iTTUzMSwyMzQ2LjgzNTkgTDU0MSwyMzQ2LjgzNTkgQzU1NiwyMzQ2LjgzNTkgNTU2LDIzNDYuODM1OSA1NzEsMjM0Ni44MzU5IEw1ODEsMjM0Ni44MzU5ICIgZmlsbD0ibm9uZSIgc3R5bGU9InN0cm9rZTojMTgxODE4O3N0cm9rZS13aWR0aDoxLjA7Ii8+PHJlY3QgZmlsbD0iI0YxRjFGMSIgaGVpZ2h0PSIzNC45ODQ0IiByeD0iMTIuNSIgcnk9IjEyLjUiIHN0eWxlPSJzdHJva2U6IzE4MTgxODtzdHJva2Utd2lkdGg6MS41OyIgd2lkdGg9IjMzMSIgeD0iNTgxIiB5PSIyMzg0LjMyODEiLz48dGV4dCBmaWxsPSIjMDAwMDAwIiBmb250LWZhbWlseT0ic2Fucy1zZXJpZiIgZm9udC1zaXplPSIxNCIgbGVuZ3RoQWRqdXN0PSJzcGFjaW5nIiB0ZXh0TGVuZ3RoPSIzMTEiIHg9IjU5MSIgeT0iMjQwNy41NjI1Ij5DdXN0b21lciBDYXBhY2l0eSBhbmQgQ29tcGV0ZW5jeSBEZXZlbG9wbWVudDwvdGV4dD48cmVjdCBmaWxsPSIjRjFGMUYxIiBoZWlnaHQ9IjM0Ljk4NDQiIHJ4PSIxMi41IiByeT0iMTIuNSIgc3R5bGU9InN0cm9rZTojMTgxODE4O3N0cm9rZS13aWR0aDoxLjU7IiB3aWR0aD0iMjg5IiB4PSI5NjIiIHk9IjIzODQuMzI4MSIvPjx0ZXh0IGZpbGw9IiMwMDAwMDAiIGZvbnQtZmFtaWx5PSJzYW5zLXNlcmlmIiBmb250LXNpemU9IjE0IiBsZW5ndGhBZGp1c3Q9InNwYWNpbmciIHRleHRMZW5ndGg9IjI2OSIgeD0iOTcyIiB5PSIyNDA3LjU2MjUiPkNvbnRpbnVvdXMgaW1wcm92ZW1lbnQgZGFsYW0gcGVsYXlhbmFuPC90ZXh0PjxwYXRoIGQ9Ik05MTIsMjQwMS44MjAzIEw5MjIsMjQwMS44MjAzIEM5MzcsMjQwMS44MjAzIDkzNywyNDAxLjgyMDMgOTUyLDI0MDEuODIwMyBMOTYyLDI0MDEuODIwMyAiIGZpbGw9Im5vbmUiIHN0eWxlPSJzdHJva2U6IzE4MTgxODtzdHJva2Utd2lkdGg6MS4wOyIvPjxwYXRoIGQ9Ik01MzEsMjM0Ni44MzU5IEw1NDEsMjM0Ni44MzU5IEM1NTYsMjM0Ni44MzU5IDU1NiwyNDAxLjgyMDMgNTcxLDI0MDEuODIwMyBMNTgxLDI0MDEuODIwMyAiIGZpbGw9Im5vbmUiIHN0eWxlPSJzdHJva2U6IzE4MTgxODtzdHJva2Utd2lkdGg6MS4wOyIvPjxwYXRoIGQ9Ik0zMDAsMTI3NC42NDA2IEwzMTAsMTI3NC42NDA2IEMzMjUsMTI3NC42NDA2IDMyNSwyMzQ2LjgzNTkgMzQwLDIzNDYuODM1OSBMMzUwLDIzNDYuODM1OSAiIGZpbGw9Im5vbmUiIHN0eWxlPSJzdHJva2U6IzE4MTgxODtzdHJva2Utd2lkdGg6MS4wOyIvPjxyZWN0IGZpbGw9IiNGMUYxRjEiIGhlaWdodD0iMzQuOTg0NCIgcng9IjEyLjUiIHJ5PSIxMi41IiBzdHlsZT0ic3Ryb2tlOiMxODE4MTg7c3Ryb2tlLXdpZHRoOjEuNTsiIHdpZHRoPSI5MSIgeD0iMzUwIiB5PSIyNDY2LjgwNDciLz48dGV4dCBmaWxsPSIjMDAwMDAwIiBmb250LWZhbWlseT0ic2Fucy1zZXJpZiIgZm9udC1zaXplPSIxNCIgbGVuZ3RoQWRqdXN0PSJzcGFjaW5nIiB0ZXh0TGVuZ3RoPSI3MSIgeD0iMzYwIiB5PSIyNDkwLjAzOTEiPktlc2ltcHVsYW48L3RleHQ+PHJlY3QgZmlsbD0iI0YxRjFGMSIgaGVpZ2h0PSIzNC45ODQ0IiByeD0iMTIuNSIgcnk9IjEyLjUiIHN0eWxlPSJzdHJva2U6IzE4MTgxODtzdHJva2Utd2lkdGg6MS41OyIgd2lkdGg9IjU5MiIgeD0iNDkxIiB5PSIyNDM5LjMxMjUiLz48dGV4dCBmaWxsPSIjMDAwMDAwIiBmb250LWZhbWlseT0ic2Fucy1zZXJpZiIgZm9udC1zaXplPSIxNCIgbGVuZ3RoQWRqdXN0PSJzcGFjaW5nIiB0ZXh0TGVuZ3RoPSI1NzIiIHg9IjUwMSIgeT0iMjQ2Mi41NDY5Ij5DUk0gc2ViYWdhaSBzdHJhdGVnaSB1bnR1ayBtZW1wZXJvbGVoIHByb2ZpdCBtZWxhbHVpIG1hbmFqZW1lbiBodWJ1bmdhbiBwZWxhbmdnYW48L3RleHQ+PHBhdGggZD0iTTQ0MSwyNDg0LjI5NjkgTDQ1MSwyNDg0LjI5NjkgQzQ2NiwyNDg0LjI5NjkgNDY2LDI0NTYuODA0NyA0ODEsMjQ1Ni44MDQ3IEw0OTEsMjQ1Ni44MDQ3ICIgZmlsbD0ibm9uZSIgc3R5bGU9InN0cm9rZTojMTgxODE4O3N0cm9rZS13aWR0aDoxLjA7Ii8+PHJlY3QgZmlsbD0iI0YxRjFGMSIgaGVpZ2h0PSIzNC45ODQ0IiByeD0iMTIuNSIgcnk9IjEyLjUiIHN0eWxlPSJzdHJva2U6IzE4MTgxODtzdHJva2Utd2lkdGg6MS41OyIgd2lkdGg9IjYxOCIgeD0iNDkxIiB5PSIyNDk0LjI5NjkiLz48dGV4dCBmaWxsPSIjMDAwMDAwIiBmb250LWZhbWlseT0ic2Fucy1zZXJpZiIgZm9udC1zaXplPSIxNCIgbGVuZ3RoQWRqdXN0PSJzcGFjaW5nIiB0ZXh0TGVuZ3RoPSI1OTgiIHg9IjUwMSIgeT0iMjUxNy41MzEzIj5LZWJlcmhhc2lsYW4gQ1JNIGJlcmdhbnR1bmcgcGFkYSBwZXJ1YmFoYW4gc2lzdGVtLCB0ZWtub2xvZ2ksIGRhbiBzdW1iZXIgZGF5YSBtYW51c2lhPC90ZXh0PjxwYXRoIGQ9Ik00NDEsMjQ4NC4yOTY5IEw0NTEsMjQ4NC4yOTY5IEM0NjYsMjQ4NC4yOTY5IDQ2NiwyNTExLjc4OTEgNDgxLDI1MTEuNzg5MSBMNDkxLDI1MTEuNzg5MSAiIGZpbGw9Im5vbmUiIHN0eWxlPSJzdHJva2U6IzE4MTgxODtzdHJva2Utd2lkdGg6MS4wOyIvPjxwYXRoIGQ9Ik0zMDAsMTI3NC42NDA2IEwzMTAsMTI3NC42NDA2IEMzMjUsMTI3NC42NDA2IDMyNSwyNDg0LjI5NjkgMzQwLDI0ODQuMjk2OSBMMzUwLDI0ODQuMjk2OSAiIGZpbGw9Im5vbmUiIHN0eWxlPSJzdHJva2U6IzE4MTgxODtzdHJva2Utd2lkdGg6MS4wOyIvPjwhLS1TUkM9W1pMVlJSaml1NDd0dExfMG4yUEFZSk9EWXVRVWNJUnJlS2dDTmZ6dGRhU0g4ajJISXVDS0JfX3NVOFFjQjRzMXQ3LWU4NGtUc1BpdVB6Z0ZwUDdzbFRETkppQmVHVHAtdHVrbWtFNnp3UVNMRnNQNU5IaGo2M005QmNjaFBJLXRGTG5TTnVobEtqUkhVYU1PWmxCYUd6XzlQUVVOS01rb3k5SXpoOU9Cc2VIS21zYkVkajZYMjROR0RhcWg2Rm1DMnczZy1tQnpVemVNcWdpcVZaV1dPTm1Qb1UxVDNGOEx6OEJ0Y3Zta25iSnFycjJsSGFBS1hFc2JiNE5uZWJpeDdxeGZLV29Uc1puV1VWc0hsN0NnWkJiY1FGY1h5U0tmS1dHSHlEZkZiZGNlSWRKY1kyYV9rbkJOdUpMUW5xR1ozanE1UW9keHBFczBKc2JIdkdjSTBvcTFtU2VkN2RYbzJ1UjVRTFp4NUZnZ1VZdERvcG9hWEpPcVlKZ2xaUllIX1N5R1RUVEE5WlI2YjVCUzEzT3NqNTZVeHBVcnZFbDRqbE5JU0ZCTFU3Tjlqc0xMcVZBa3ZQRE5FVmtDUmZub296VkdJdjRWWU44em9NTExmWk5ETkpkUU9XRmZJWDY1eVpXNi1RMnl4alBUd2hZNnZzWVdWQjZUSkNodUg2QkktRmlxbDBnR3dLZzlMTWplemxLWVZYdFJGR3BqYmJsQ3FWUTVxQjFuZU1lZzNSblFEdXJQR2hkcUFMQ2xFVDlIZGJSa1BhTVdObGs2d2V5OVdfak5wM0RlZFFHaTI3dkgtRGhRVnVlODcwX1o3MlN4THcxaEpVS2cySjlTWVV0YzVsQlhkaUFfWXhwSTdNLWJEUEplSjNKMF84b1U3aUgzdzVxQWtIaWZHNm1RYXhHNUR3ekkyaUdUNUVJNld4d1dCRGdMb1F2dG9pa05jWlBhbWs1VmVYTXNicHRyRjBnQWl3azVnanpzOW1YZ2dJZDgtaW8yRnB5OC0zbEhhMnljWTVoZGlXdS1peG9CZGFNUEJvaC1PV2NtbHhLNkxVRzBzdzQ3WUNXczNHTnFpUjNkcVZfWHNpdl9pLUtWV0dKY0FFcjNKY2t2X3ZqWTZLS3NpZ0tBeHAxSHdvX2JhOGRsbzhWOW9uQ2xPSWpoNS1LeTBnY21NMmZxRGJNd2pxT2RXU01Sb2kwXzFLSWdzZjg5WUd5SWo2c0d4UXZZYmlLekNLQ2tKcGJ2QURhVk4xektnRS1jTExybk5JX1A4VnUtMjFEOUI1cV80bm9oT01UMjIydmdoWmdfNWFMY3pYbml0WVVDdXp3VlprNUNFTDhhLWRzSWh1c1lGTUZWZVBXOHRWdVpHSERTVTc0bExHYVl4WTAtTnVmQXRVQUlXb0Y4dWFzSDNhdWtNN2U1aUduS0Q0cEFGeXZQV0ZNeG5ZX0ZpbFV2Q0dUdGc1T3FYMXBKb1EtQlJwQUVPRzJTQnJPbmZpN3E3dGhNWjFhcmdFb3NGdjlycWRmcU9WenVSdWhsbktaanJBSlE4dlhCX0NIdEYxMjM2R2xBUE1RREVhanc3bGFsQm5lTWJFak5JS25GS09pc0VIcUliMTlDc1FiZmdNOHctWjUwaDgwNWZKMFctTy1zT0FGQWkyb0FBcy1rckpPb09jbFlKdlJUNF9Wd3J0MnpoSkRQemlJVzRDTW9PaXFkbVdYNml3bjE4eEt2TFJaeDl5ZVJpQjloSGNrTWdPQm9fQjBUaDE3WUpZZGlDazdVaTR3Q2tDb3lrSm1UT1Y4eE05c3ZVaC1XSkpLSl84ZWJkaGZwVEtPU0JYLUo5RlB5YmpXdUw5T05kMEpneHZ6LV9vQ2g2MTBWQ3VycmtJZU9qZ2RYSmNSTHhsMG9vUEs1RVpqZ0lrR1h0MjNYRzVIUmlkSmF4Y1NTenR3YVFaSGpUbzdnNFI2TzNqQU5ZQWpsYkxVeEtxbnRrVVlOQkJVYUFhamlGNGVEUzdkN3pGNjJqQk9JSnZMWmZXNEFQLVRPU1AxUnZabGdKVXZQdWIwdWRtZDlWRTlhdHN5a2hCRTkxdXNOM3I3azZaRlRtcjBNVV9WNmd5UGhhSUpiYW1NQTJsUEVrUUxtaGxkYjY2X1puSGhTMWl5Z3hFZzl4RVFqUGtYallXYzYzbm9EbkUzSUdMWF9IaVY3LWxsZUVyX3hOemdpdUlDbEpBVHd6a052eFZWRmN2Y283TVJhVGg3WnhHUm94TVJ6X2x4di1BX3hTRldkLVZCdndlMEU5ZHdYR3pOQkQ1clp6U0Z5dWxYMlZ6SzVYWnFIVzd0dmx2bUNWUmd1LTBHNVVoNFpoenRRNV9tNUd3M21pSWJEWGtqUllyekZjd2VfTEx5MEdpOWxNMGI5b1AtM043bDVqem15MF0tLT48L2c+PC9zdmc+;" vertex="1" parent="1">
            <mxGeometry x="-250" y="-1050" width="1263" height="2551" as="geometry" />
          </mxCell>
        </UserObject>
      </root>
    </mxGraphModel>
  </diagram>
</mxfile>
